<svg version="1.1" id="Layer_1" xmlns="http://www.w3.org/2000/svg" xmlns:xlink="http://www.w3.org/1999/xlink" x="0px" y="0px"
	 width="100%" viewBox="0 0 700 700" enable-background="new 0 0 700 700" xml:space="preserve">
<path fill="#111111" opacity="1.000000" stroke="none" 
	d="
M701.000000,256.000000 
	C701.000000,404.666656 701.000000,552.833313 701.000000,701.000000 
	C467.666656,701.000000 234.333328,701.000000 1.000000,701.000000 
	C1.000000,467.666656 1.000000,234.333328 1.000000,1.000000 
	C234.333328,1.000000 467.666656,1.000000 701.000000,1.000000 
	C701.000000,85.833336 701.000000,170.666672 701.000000,256.000000 
M474.158051,154.180145 
	C467.106323,143.119736 460.054596,132.059326 452.801239,120.356674 
	C441.359833,106.447891 427.737488,95.030205 412.299103,85.889526 
	C364.710480,57.713573 313.407013,52.882969 260.049347,62.598385 
	C232.457489,67.622337 206.034027,76.464722 182.474533,91.950699 
	C170.945999,99.528557 160.711502,109.075066 149.263840,118.003410 
	C140.375092,126.913452 132.496567,136.573456 126.508156,148.301849 
	C126.320663,148.842194 126.133179,149.382523 125.303864,150.188400 
	C112.779938,172.628296 108.202362,197.146271 107.182831,222.395538 
	C106.260529,245.236801 109.419098,267.736176 114.530846,290.005920 
	C125.765396,338.950073 149.841736,381.970917 176.003036,424.784271 
	C179.954025,432.276062 183.905014,439.767822 187.943161,447.976013 
	C190.305038,453.651001 192.666916,459.325958 195.000900,465.780243 
	C196.209381,469.568756 197.417862,473.357300 198.777344,477.947479 
	C199.665329,482.332489 200.553299,486.717529 201.503754,492.021790 
	C203.113586,502.651306 200.269989,512.791260 197.756546,523.658752 
	C193.224884,534.443848 188.693222,545.229004 183.761230,556.611145 
	C178.462875,569.058228 173.164520,581.505249 167.309998,594.426392 
	C166.890823,596.144043 166.471634,597.861694 165.981522,599.869995 
	C174.973633,602.864624 183.702164,605.943604 192.539581,608.669739 
	C202.952057,611.881653 213.458847,614.787903 224.547577,618.268188 
	C224.843414,618.419067 225.123947,618.622986 225.437241,618.713318 
	C269.946686,631.549011 314.837860,642.841675 360.260040,651.974487 
	C366.363983,653.201721 372.511383,654.212769 379.210693,655.427673 
	C378.593872,653.448181 378.306763,652.336548 377.905731,651.267578 
	C367.623505,623.861450 362.485168,595.501343 363.092865,566.259277 
	C363.351257,553.824524 364.980591,541.418274 366.206177,528.196655 
	C366.524536,526.128174 366.670868,524.015625 367.188568,521.998291 
	C371.260651,506.130981 379.296478,499.956451 395.873871,500.017853 
	C399.864838,500.032654 403.852600,500.454681 407.845123,500.598846 
	C419.492706,501.019501 431.153656,501.910889 442.787354,501.647186 
	C455.346832,501.362518 467.659882,499.215546 478.866699,491.222076 
	C488.443634,484.960388 490.750732,475.644196 490.031036,464.068909 
	C490.030212,462.083923 490.107422,460.095337 490.014954,458.114624 
	C489.625671,449.775635 489.931305,441.635254 496.718140,434.774078 
	C497.496185,434.149323 498.258820,433.504181 499.054596,432.902893 
	C509.299957,425.161896 508.646393,417.406250 497.329773,411.558105 
	C496.933044,411.353027 497.138580,409.982391 497.827576,409.101593 
	C500.822449,407.518280 504.164246,406.358002 506.731201,404.252899 
	C510.617401,401.065887 511.933655,393.987213 508.951538,390.888184 
	C506.103546,387.928528 506.347168,384.762573 506.198639,381.393372 
	C506.089996,378.928314 506.012970,376.461914 506.110229,373.276672 
	C506.690491,372.546021 507.144714,371.351776 507.869995,371.154663 
	C517.796936,368.456879 524.228333,361.443817 529.677246,353.381226 
	C536.537903,343.229828 536.419678,343.149933 527.778198,333.385681 
	C519.422791,321.899780 510.745789,310.629456 502.843353,298.839935 
	C498.693817,292.649323 495.900635,285.549561 492.417664,278.071411 
	C488.322662,267.423859 487.141846,256.196442 485.973480,244.070175 
	C485.999664,239.750259 485.997498,235.429932 486.057739,231.110489 
	C486.202423,220.735947 486.376404,210.361832 486.587921,199.202896 
	C486.166656,196.307938 485.797699,193.404236 485.315002,190.519562 
	C483.245178,178.150421 480.165894,166.089401 474.158051,154.180145 
M461.985565,600.048828 
	C462.292450,590.683655 462.599335,581.318420 462.959808,571.114685 
	C464.926086,558.924194 465.469971,546.414429 471.595001,534.640198 
	C475.939575,528.484497 482.109070,525.133789 489.406525,525.143433 
	C501.023834,525.158813 512.651062,525.842407 524.253906,526.567688 
	C540.199463,527.564331 555.929077,526.731812 570.778503,520.377930 
	C582.572327,515.331482 589.881653,506.848602 589.132263,493.015594 
	C588.790649,486.709534 589.086792,480.368896 589.500122,473.422394 
	C590.526489,466.349609 593.598755,460.635742 599.721252,456.517914 
	C601.807068,455.115112 603.662598,452.790344 604.668213,450.472504 
	C607.424866,444.118561 604.713928,439.632568 595.926880,435.266541 
	C598.114258,434.206818 600.271118,433.350220 602.238159,432.175781 
	C610.054626,427.509003 610.632324,422.220245 607.132263,413.881622 
	C605.170227,409.207214 606.292297,403.198120 606.296387,397.790619 
	C606.296875,397.134583 607.911133,396.294159 608.915283,395.852875 
	C620.343201,390.830933 627.756287,381.886810 632.864807,370.899170 
	C633.618225,369.278534 633.247070,366.170380 632.121582,364.788971 
	C619.952515,349.852936 608.068665,334.734589 598.153931,317.268402 
	C591.394897,304.290070 587.350281,290.502045 585.921448,275.032227 
	C586.018433,265.371490 585.735535,255.688660 586.296814,246.054977 
	C587.265015,229.434464 585.489258,213.169022 580.442444,197.378342 
	C565.934387,151.984848 535.699036,120.570518 492.844757,101.065033 
	C480.407776,95.404236 467.102448,91.651207 454.195221,87.023628 
	C460.561707,96.089676 467.775726,103.481636 474.017822,111.619125 
	C496.218750,140.561310 508.823730,173.105347 509.304718,209.877487 
	C509.465881,222.200211 508.764130,234.541580 509.171631,246.850754 
	C509.383240,253.242432 511.153992,259.582489 512.258545,266.674927 
	C518.488953,285.940674 530.441223,301.682037 543.411438,317.548004 
	C548.033630,322.988403 552.876282,328.263275 557.155945,333.960999 
	C558.611572,335.898987 559.809204,339.268005 559.149536,341.360443 
	C554.188843,357.095642 546.925964,371.489136 533.669434,382.171417 
	C532.339844,383.242828 531.619812,386.176758 531.949890,388.005737 
	C533.224121,395.065552 532.607605,401.775757 530.314575,408.558472 
	C529.078979,412.213470 528.210266,416.214081 528.270935,420.041443 
	C528.414429,429.093994 526.901611,437.822449 519.769775,443.589386 
	C512.794067,449.230164 510.909760,455.758392 512.071960,463.970306 
	C512.257385,465.280609 512.213501,466.623352 512.123108,468.859863 
	C512.280579,482.286774 508.208557,494.298279 498.569397,503.673492 
	C484.656586,517.205261 466.926666,522.757996 448.177673,523.685059 
	C430.627228,524.552856 412.970734,523.420105 395.366791,522.949402 
	C391.503204,522.846069 389.297272,523.872192 388.993103,528.763184 
	C387.714966,541.155090 386.436859,553.546997 385.060455,566.882751 
	C385.719940,576.246582 386.379395,585.610474 387.014069,595.834045 
	C389.347412,606.883240 391.680756,617.932373 394.039764,629.749573 
	C397.965729,640.141052 401.702454,650.611267 405.969818,660.860596 
	C406.873566,663.031189 409.470001,665.439087 411.704254,665.965820 
	C430.922089,670.496521 450.228638,674.653931 469.529602,678.826050 
	C472.113312,679.384460 474.813721,679.403137 478.011353,679.727722 
	C475.775330,672.677429 473.660034,666.589600 471.924408,660.395447 
	C469.470459,651.637756 467.296997,642.801575 464.994537,633.113464 
	C463.988892,622.403137 462.983215,611.692749 461.985565,600.048828 
z"/>
<path fill="#959595" opacity="1.000000" stroke="none" 
	d="
M365.986908,528.999084 
	C364.980591,541.418274 363.351257,553.824524 363.092865,566.259277 
	C362.485168,595.501343 367.623505,623.861450 377.905731,651.267578 
	C378.306763,652.336548 378.593872,653.448181 379.210693,655.427673 
	C372.511383,654.212769 366.363983,653.201721 360.260040,651.974487 
	C314.837860,642.841675 269.946686,631.549011 225.437241,618.713318 
	C225.123947,618.622986 224.843414,618.419067 224.227661,617.632080 
	C226.182220,598.220398 229.611465,579.818848 241.345261,563.838867 
	C252.007278,550.115295 266.070953,540.665955 279.464172,530.014038 
	C282.916321,529.337891 285.970490,528.075867 289.014130,528.100830 
	C305.102325,528.232483 321.187866,528.687744 337.274261,529.033997 
	C337.605774,529.041138 337.936554,529.111633 338.267517,529.110413 
	C347.507324,529.076660 356.747101,529.037476 365.986908,528.999084 
z"/>
<path fill="#505050" opacity="1.000000" stroke="none" 
	d="
M598.483398,317.949982 
	C608.068665,334.734589 619.952515,349.852936 632.121582,364.788971 
	C633.247070,366.170380 633.618225,369.278534 632.864807,370.899170 
	C627.756287,381.886810 620.343201,390.830933 608.915283,395.852875 
	C607.911133,396.294159 606.296875,397.134583 606.296387,397.790619 
	C606.292297,403.198120 605.170227,409.207214 607.132263,413.881622 
	C610.632324,422.220245 610.054626,427.509003 602.238159,432.175781 
	C600.271118,433.350220 598.114258,434.206818 595.926880,435.266541 
	C604.713928,439.632568 607.424866,444.118561 604.668213,450.472504 
	C603.662598,452.790344 601.807068,455.115112 599.721252,456.517914 
	C593.598755,460.635742 590.526489,466.349609 588.850342,473.721619 
	C578.331543,473.302277 568.457275,472.647949 558.594666,471.850403 
	C543.150879,470.601501 527.714966,469.255829 512.275696,467.951111 
	C512.213501,466.623352 512.257385,465.280609 512.071960,463.970306 
	C510.909760,455.758392 512.794067,449.230164 519.769775,443.589386 
	C526.901611,437.822449 528.414429,429.093994 528.270935,420.041443 
	C528.210266,416.214081 529.078979,412.213470 530.314575,408.558472 
	C532.607605,401.775757 533.224121,395.065552 531.949890,388.005737 
	C531.619812,386.176758 532.339844,383.242828 533.669434,382.171417 
	C546.925964,371.489136 554.188843,357.095642 559.149536,341.360443 
	C559.809204,339.268005 558.611572,335.898987 557.155945,333.960999 
	C552.876282,328.263275 548.033630,322.988403 543.755005,317.250732 
	C550.840942,317.315491 557.596863,317.520325 564.320923,318.096802 
	C568.551697,318.459534 572.734741,319.379120 577.116821,320.331055 
	C581.685730,325.345673 586.401062,329.657196 591.848511,333.017578 
	C592.255005,332.665619 592.661499,332.313660 593.067993,331.961670 
	C590.741455,327.316956 588.414978,322.672211 586.543823,318.022095 
	C590.827209,317.994476 594.655334,317.972229 598.483398,317.949982 
z"/>
<path fill="#A5A5A5" opacity="1.000000" stroke="none" 
	d="
M195.028778,465.000916 
	C192.666916,459.325958 190.305038,453.651001 188.084686,447.307556 
	C189.429764,445.785736 190.535828,444.721680 191.852402,444.112793 
	C201.495300,439.652985 211.257721,435.444733 220.824509,430.829712 
	C227.026642,427.837830 232.962585,424.294128 239.375061,421.057953 
	C245.022873,423.400787 250.171021,427.157318 255.631149,427.684906 
	C270.981964,429.168152 286.459320,429.370026 301.890533,429.983032 
	C312.350311,430.398590 322.816010,430.668823 333.279785,430.979889 
	C356.205078,431.661407 379.128693,432.423157 402.057892,432.931793 
	C407.679688,433.056488 413.328552,431.946716 418.950806,432.067139 
	C442.879364,432.579681 466.803131,433.322266 490.726593,434.049042 
	C492.527588,434.103790 494.312378,434.693115 496.104706,435.033936 
	C489.931305,441.635254 489.625671,449.775635 490.014954,458.114624 
	C490.107422,460.095337 490.030212,462.083923 489.497406,464.533020 
	C474.189148,464.665527 459.412872,464.395233 444.640320,463.987793 
	C422.576172,463.379242 400.518402,462.480682 378.451172,462.058624 
	C350.370789,461.521545 322.283997,461.299561 294.198853,461.090637 
	C292.455902,461.077667 290.703339,462.361938 288.678925,462.871216 
	C286.934601,461.133606 285.466614,459.567413 283.834167,457.712402 
	C279.446960,453.281189 275.224182,449.138763 270.824890,444.711121 
	C265.701111,439.590607 260.584808,435.897339 253.091797,439.448486 
	C241.878632,444.762665 230.555359,449.850677 219.202682,454.862152 
	C211.210281,458.390259 203.091248,461.631561 195.028778,465.000916 
z"/>
<path fill="#ADADAD" opacity="1.000000" stroke="none" 
	d="
M505.921844,373.996094 
	C506.012970,376.461914 506.089996,378.928314 506.198639,381.393372 
	C506.347168,384.762573 506.103546,387.928528 508.951538,390.888184 
	C511.933655,393.987213 510.617401,401.065887 506.731201,404.252899 
	C504.164246,406.358002 500.822449,407.518280 497.226685,408.791718 
	C494.780090,407.988007 492.940674,407.096832 491.087555,407.067444 
	C481.837067,406.920624 472.577118,407.212799 463.331482,406.954956 
	C445.089233,406.446136 426.858215,405.526398 408.615417,405.048676 
	C378.234497,404.253052 347.849182,403.608673 317.463196,403.033325 
	C306.485596,402.825439 295.498810,403.104156 284.521118,402.898315 
	C282.631561,402.862885 280.766815,401.507416 278.913147,400.309021 
	C279.015259,388.902130 279.094879,377.947968 279.572601,367.078735 
	C281.424774,367.439697 282.874176,367.927399 284.333557,367.959442 
	C301.841583,368.343414 319.351105,368.659851 336.960022,369.374268 
	C338.812378,370.841705 340.536469,372.811127 342.322266,372.868744 
	C351.956818,373.179718 361.608612,372.907135 371.250153,373.079163 
	C374.423645,373.135803 376.357513,372.165741 377.376953,369.067841 
	C379.980164,369.753754 382.182068,370.826538 384.424347,370.918976 
	C403.655029,371.711609 422.889160,372.484070 442.129852,372.952972 
	C463.389679,373.471100 484.657501,373.662445 505.921844,373.996094 
z"/>
<path fill="#7B7B7B" opacity="1.000000" stroke="none" 
	d="
M586.088440,318.027466 
	C588.414978,322.672211 590.741455,327.316956 593.067993,331.961670 
	C592.661499,332.313660 592.255005,332.665619 591.848511,333.017578 
	C586.401062,329.657196 581.685730,325.345673 577.122070,319.958557 
	C576.721985,318.515564 576.677856,317.602570 576.239624,316.957184 
	C566.170715,302.128448 556.163513,287.255066 545.837036,272.606964 
	C544.365356,270.519287 541.436157,268.564148 538.960144,268.240448 
	C530.098389,267.081940 521.141357,266.651611 512.220398,265.945892 
	C511.153992,259.582489 509.383240,253.242432 509.171631,246.850754 
	C508.764130,234.541580 509.465881,222.200211 509.304718,209.877487 
	C508.823730,173.105347 496.218750,140.561310 474.017822,111.619125 
	C467.775726,103.481636 460.561707,96.089676 454.195221,87.023628 
	C467.102448,91.651207 480.407776,95.404236 492.844757,101.065033 
	C535.699036,120.570518 565.934387,151.984848 580.442444,197.378342 
	C585.489258,213.169022 587.265015,229.434464 586.296814,246.054977 
	C585.735535,255.688660 586.018433,265.371490 585.432617,275.503845 
	C580.233887,275.640076 575.524048,275.304718 570.602173,274.678345 
	C569.637512,271.281097 568.884949,268.174835 568.102173,264.623566 
	C567.657043,259.769226 567.242126,255.359909 566.744263,250.554276 
	C566.206848,245.750961 565.752380,241.343948 565.265015,236.480606 
	C565.018921,231.652191 564.805664,227.280121 564.554688,222.457062 
	C564.295715,218.996307 564.074524,215.986526 563.895508,212.560699 
	C563.295593,207.764191 562.653442,203.383713 562.020325,198.588638 
	C561.023254,193.481003 560.313110,188.700562 558.957642,184.110687 
	C554.159485,167.863174 545.668335,153.839493 533.042175,142.075394 
	C530.411621,139.451996 527.822205,137.141357 525.044189,134.549301 
	C521.585144,132.126328 518.314514,129.984772 514.771851,127.617737 
	C512.602661,127.844093 510.705536,128.295929 508.567261,129.049438 
	C508.343994,130.801834 508.009003,132.366776 508.435638,133.685226 
	C511.829559,144.173035 515.368103,154.614044 518.884766,165.489685 
	C519.978638,172.590988 521.050049,179.272034 522.081177,186.387924 
	C522.422852,192.535797 522.804871,198.248825 523.208130,204.374512 
	C523.659363,208.736130 523.149353,213.107391 524.697754,216.553879 
	C529.127625,226.414429 533.705750,236.335678 539.480286,245.437073 
	C549.891113,261.846039 561.184143,277.696960 572.211731,293.709961 
	C573.154053,295.078369 574.867310,295.915924 576.433594,297.276917 
	C579.792725,304.378296 582.940613,311.202881 586.088440,318.027466 
z"/>
<path fill="#A9A9A9" opacity="1.000000" stroke="none" 
	d="
M278.890594,400.761719 
	C280.766815,401.507416 282.631561,402.862885 284.521118,402.898315 
	C295.498810,403.104156 306.485596,402.825439 317.463196,403.033325 
	C347.849182,403.608673 378.234497,404.253052 408.615417,405.048676 
	C426.858215,405.526398 445.089233,406.446136 463.331482,406.954956 
	C472.577118,407.212799 481.837067,406.920624 491.087555,407.067444 
	C492.940674,407.096832 494.780090,407.988007 496.844604,408.818420 
	C497.138580,409.982391 496.933044,411.353027 497.329773,411.558105 
	C508.646393,417.406250 509.299957,425.161896 499.054596,432.902893 
	C498.258820,433.504181 497.496185,434.149323 496.411438,434.903992 
	C494.312378,434.693115 492.527588,434.103790 490.726593,434.049042 
	C466.803131,433.322266 442.879364,432.579681 418.950806,432.067139 
	C413.328552,431.946716 407.679688,433.056488 402.057892,432.931793 
	C379.128693,432.423157 356.205078,431.661407 333.279785,430.979889 
	C322.816010,430.668823 312.350311,430.398590 301.890533,429.983032 
	C286.459320,429.370026 270.981964,429.168152 255.631149,427.684906 
	C250.171021,427.157318 245.022873,423.400787 239.202789,420.770142 
	C237.268677,419.044098 235.897659,417.629791 234.453400,416.294739 
	C229.645264,411.850281 224.810822,407.434265 220.456573,403.004852 
	C228.605942,402.672150 236.285202,402.341888 244.433594,402.059540 
	C254.706528,402.145538 264.510895,402.247070 274.313477,402.155701 
	C275.843384,402.141418 277.365082,401.248383 278.890594,400.761719 
z"/>
<path fill="#BFBFBF" opacity="1.000000" stroke="none" 
	d="
M485.835602,244.993958 
	C487.141846,256.196442 488.322662,267.423859 491.955444,278.497650 
	C484.535950,278.621582 477.581177,278.234100 470.620972,278.034943 
	C456.675232,277.635925 442.727783,277.263916 428.778564,277.028900 
	C419.960419,276.880310 411.137817,277.000580 402.317200,276.998230 
	C398.559937,276.997253 394.802643,276.991028 390.737915,276.852783 
	C381.698822,270.548828 377.900665,262.314240 379.862457,251.627182 
	C380.038696,250.667130 379.866486,249.644928 379.873810,248.651718 
	C379.897980,245.369827 378.549438,243.599915 374.553467,244.136810 
	C370.137634,244.049759 366.183624,243.964783 362.233429,244.051636 
	C349.401306,244.333725 349.619568,241.224762 350.126404,257.456360 
	C349.760468,269.635651 350.499481,267.621307 360.015503,267.762665 
	C360.346558,267.767578 360.686707,267.813293 361.007568,267.756012 
	C371.447815,265.891602 379.649139,269.399872 385.642334,278.087860 
	C386.584930,279.454254 387.254761,281.008850 388.050720,282.476410 
	C386.347565,283.314240 384.695648,284.717743 382.931122,284.877502 
	C378.659058,285.264252 374.334534,285.071320 369.898682,284.741302 
	C365.638489,283.583588 361.528046,282.234070 357.380096,282.106659 
	C339.107910,281.545380 320.823547,281.392334 302.546326,280.973724 
	C294.753510,280.795258 286.967316,280.328888 279.106506,279.570862 
	C278.970001,277.437683 278.905090,275.726959 278.920013,273.578308 
	C277.924591,267.307190 280.516785,263.232147 284.729370,259.393951 
	C290.334747,254.286728 295.417877,248.606293 301.025757,243.048004 
	C303.927704,239.512878 307.337402,238.282379 311.591034,238.753891 
	C313.666412,238.983963 315.806946,238.626389 318.376709,238.613129 
	C329.233002,238.639526 339.630493,238.587601 350.488098,238.618759 
	C371.266815,238.712906 391.585480,238.723984 411.854431,239.074188 
	C411.035583,240.396729 410.266418,241.380127 408.769562,243.293961 
	C411.758606,243.582458 413.956177,244.128845 416.090393,243.944000 
	C426.611755,243.032761 436.406769,244.997726 445.883850,249.813049 
	C452.513794,253.181763 459.636322,255.595840 466.589325,258.306763 
	C469.359406,259.386810 471.748108,259.647766 472.043457,255.355850 
	C472.756012,245.001892 472.867249,245.009644 483.343201,245.000290 
	C484.174011,244.999542 485.004791,244.996140 485.835602,244.993958 
z"/>
<path fill="#959595" opacity="1.000000" stroke="none" 
	d="
M175.963745,424.072327 
	C149.841736,381.970917 125.765396,338.950073 114.530846,290.005920 
	C109.419098,267.736176 106.260529,245.236801 107.182831,222.395538 
	C108.202362,197.146271 112.779938,172.628296 125.708420,150.486328 
	C124.784851,159.183136 123.456734,167.582001 122.074471,176.406418 
	C121.679413,179.127289 121.058281,181.420822 121.043640,183.718231 
	C120.957069,197.308487 120.524643,210.923721 121.195168,224.481750 
	C121.617683,233.025101 123.761826,241.483307 125.106979,250.378326 
	C128.718384,262.518768 132.356476,274.260559 136.010040,286.379761 
	C142.680359,300.173767 149.335236,313.590332 156.054703,327.350037 
	C160.812469,334.739624 165.249588,341.975067 170.271667,348.778717 
	C175.179382,355.427460 180.683975,361.635651 185.996338,368.374451 
	C196.706451,379.815094 207.346771,390.918518 217.898804,402.351868 
	C210.300613,406.477386 202.778137,410.248352 195.284653,414.076080 
	C188.827209,417.374603 182.402771,420.737762 175.963745,424.072327 
z"/>
<path fill="#BABABA" opacity="1.000000" stroke="none" 
	d="
M391.045380,276.987183 
	C394.802643,276.991028 398.559937,276.997253 402.317200,276.998230 
	C411.137817,277.000580 419.960419,276.880310 428.778564,277.028900 
	C442.727783,277.263916 456.675232,277.635925 470.620972,278.034943 
	C477.581177,278.234100 484.535950,278.621582 491.994080,278.892120 
	C495.900635,285.549561 498.693817,292.649323 502.843353,298.839935 
	C510.745789,310.629456 519.422791,321.899780 527.808777,334.065796 
	C525.675476,335.775574 523.596252,337.142426 521.317444,337.713928 
	C519.848022,338.082397 518.090210,337.074402 516.454285,337.040649 
	C497.712006,336.653717 478.967957,336.353302 460.225067,335.993286 
	C444.139740,335.684296 428.052521,335.411621 411.974335,334.876160 
	C410.171631,334.816101 408.422424,333.148834 406.921875,331.999847 
	C407.707214,330.757477 408.658020,329.745117 408.664856,328.726440 
	C408.761841,314.263733 408.730927,299.800140 408.730927,284.645203 
	C400.779388,286.121826 395.052643,283.324249 391.045380,276.987183 
z"/>
<path fill="#B2B2B2" opacity="1.000000" stroke="none" 
	d="
M406.648407,332.226868 
	C408.422424,333.148834 410.171631,334.816101 411.974335,334.876160 
	C428.052521,335.411621 444.139740,335.684296 460.225067,335.993286 
	C478.967957,336.353302 497.712006,336.653717 516.454285,337.040649 
	C518.090210,337.074402 519.848022,338.082397 521.317444,337.713928 
	C523.596252,337.142426 525.675476,335.775574 527.914246,334.387482 
	C536.419678,343.149933 536.537903,343.229828 529.677246,353.381226 
	C524.228333,361.443817 517.796936,368.456879 507.869995,371.154663 
	C507.144714,371.351776 506.690491,372.546021 506.016052,373.636383 
	C484.657501,373.662445 463.389679,373.471100 442.129852,372.952972 
	C422.889160,372.484070 403.655029,371.711609 384.424347,370.918976 
	C382.182068,370.826538 379.980164,369.753754 377.283264,368.607178 
	C376.806976,358.839020 376.806976,349.599152 376.806976,341.030334 
	C372.643890,340.068024 369.019501,340.085022 366.486877,338.430756 
	C363.242920,336.311768 360.877930,332.847107 358.524078,329.888489 
	C362.194550,329.539856 365.475189,329.265076 368.888123,329.379639 
	C370.794708,330.548553 372.554291,331.962036 374.345673,332.003540 
	C385.109192,332.252869 395.880035,332.187103 406.648407,332.226868 
z"/>
<path fill="#474747" opacity="1.000000" stroke="none" 
	d="
M512.199402,468.405487 
	C527.714966,469.255829 543.150879,470.601501 558.594666,471.850403 
	C568.457275,472.647949 578.331543,473.302277 588.647095,474.032379 
	C589.086792,480.368896 588.790649,486.709534 589.132263,493.015594 
	C589.881653,506.848602 582.572327,515.331482 570.778503,520.377930 
	C555.929077,526.731812 540.199463,527.564331 524.253906,526.567688 
	C512.651062,525.842407 501.023834,525.158813 489.406525,525.143433 
	C482.109070,525.133789 475.939575,528.484497 470.912659,534.756165 
	C460.027496,533.920166 449.830933,532.893799 439.620422,532.033020 
	C422.808075,530.615723 405.986694,529.305542 389.169098,527.950195 
	C389.297272,523.872192 391.503204,522.846069 395.366791,522.949402 
	C412.970734,523.420105 430.627228,524.552856 448.177673,523.685059 
	C466.926666,522.757996 484.656586,517.205261 498.569397,503.673492 
	C508.208557,494.298279 512.280579,482.286774 512.199402,468.405487 
z"/>
<path fill="#D7D7D7" opacity="1.000000" stroke="none" 
	d="
M149.891312,117.730560 
	C160.711502,109.075066 170.945999,99.528557 182.474533,91.950699 
	C206.034027,76.464722 232.457489,67.622337 260.049347,62.598385 
	C313.407013,52.882969 364.710480,57.713573 412.299103,85.889526 
	C427.737488,95.030205 441.359833,106.447891 452.518860,120.842560 
	C447.840973,121.553421 443.405640,121.500664 439.067047,122.122620 
	C436.953979,122.425537 435.021515,123.988205 432.723694,124.806854 
	C415.067932,102.412666 394.146545,85.134842 366.828461,76.275330 
	C348.374420,70.290512 329.481354,70.265366 310.540039,71.292755 
	C301.182159,71.800323 291.533356,72.071426 282.687134,77.145477 
	C280.868378,78.219963 279.339996,79.135124 277.507690,80.112106 
	C277.006042,80.234154 276.808289,80.294380 276.169250,80.305550 
	C263.914856,80.235443 252.101624,80.238289 240.288620,80.187096 
	C226.553223,80.127571 229.035141,79.986282 228.843353,91.237373 
	C228.745239,96.993912 227.997299,97.770325 222.119095,97.794586 
	C215.866028,97.820389 209.612793,97.800392 202.564484,97.800392 
	C202.564484,106.429382 202.564484,114.210518 202.125076,121.991516 
	C189.901367,121.660828 178.117783,121.301048 166.332397,121.015434 
	C162.173996,120.914665 157.983124,121.267609 153.865845,120.843239 
	C152.449112,120.697212 151.211014,118.818001 149.891312,117.730560 
z"/>
<path fill="#A0A0A0" opacity="1.000000" stroke="none" 
	d="
M288.955231,463.042664 
	C290.703339,462.361938 292.455902,461.077667 294.198853,461.090637 
	C322.283997,461.299561 350.370789,461.521545 378.451172,462.058624 
	C400.518402,462.480682 422.576172,463.379242 444.640320,463.987793 
	C459.412872,464.395233 474.189148,464.665527 489.424957,464.996277 
	C490.750732,475.644196 488.443634,484.960388 478.250763,491.044739 
	C475.865631,490.578339 474.102539,490.086060 472.326263,490.032562 
	C459.370453,489.642456 446.412506,489.318909 433.454224,489.016449 
	C417.999115,488.655701 402.543243,488.328003 387.087341,488.002472 
	C370.632690,487.655884 354.177612,487.329346 337.722809,486.989899 
	C337.057648,486.976166 336.393250,486.886810 335.728638,486.888550 
	C323.137604,486.921539 310.546539,486.962952 297.733093,486.720245 
	C296.993195,484.299835 296.475677,482.161835 295.823486,479.694214 
	C293.444275,473.923981 291.199738,468.483307 288.955231,463.042664 
z"/>
<path fill="#9D9D9D" opacity="1.000000" stroke="none" 
	d="
M297.955505,487.002625 
	C310.546539,486.962952 323.137604,486.921539 335.728638,486.888550 
	C336.393250,486.886810 337.057648,486.976166 337.722809,486.989899 
	C354.177612,487.329346 370.632690,487.655884 387.087341,488.002472 
	C402.543243,488.328003 417.999115,488.655701 433.454224,489.016449 
	C446.412506,489.318909 459.370453,489.642456 472.326263,490.032562 
	C474.102539,490.086060 475.865631,490.578339 477.937561,491.196045 
	C467.659882,499.215546 455.346832,501.362518 442.787354,501.647186 
	C431.153656,501.910889 419.492706,501.019501 407.845123,500.598846 
	C403.852600,500.454681 399.864838,500.032654 395.873871,500.017853 
	C379.296478,499.956451 371.260651,506.130981 367.188568,521.998291 
	C366.670868,524.015625 366.524536,526.128174 366.096558,528.597900 
	C356.747101,529.037476 347.507324,529.076660 338.267517,529.110413 
	C337.936554,529.111633 337.605774,529.041138 337.274261,529.033997 
	C321.187866,528.687744 305.102325,528.232483 289.014130,528.100830 
	C285.970490,528.075867 282.916321,529.337891 279.619354,529.723022 
	C284.761566,523.344177 291.654816,518.391663 294.353943,509.805603 
	C298.564209,502.456848 298.116364,494.708374 297.955505,487.002625 
z"/>
<path fill="#C5C5C5" opacity="1.000000" stroke="none" 
	d="
M294.108826,510.062927 
	C291.654816,518.391663 284.761566,523.344177 279.216553,529.731140 
	C266.070953,540.665955 252.007278,550.115295 240.927765,563.835144 
	C237.215927,564.808533 234.027084,565.217712 231.214752,566.471436 
	C212.880371,574.645020 194.645676,583.041992 176.328293,591.254211 
	C173.643890,592.457642 170.693481,593.067688 167.866150,593.952271 
	C173.164520,581.505249 178.462875,569.058228 184.343048,556.307739 
	C186.204498,555.702576 187.571594,555.596558 188.750565,555.069580 
	C205.558624,547.557007 222.340530,539.985779 239.130203,532.432007 
	C255.616913,525.014526 272.082184,517.548157 288.630585,510.270905 
	C290.186310,509.586792 292.270172,510.103668 294.108826,510.062927 
z"/>
<path fill="#3B3B3B" opacity="1.000000" stroke="none" 
	d="
M389.081116,528.356689 
	C405.986694,529.305542 422.808075,530.615723 439.620422,532.033020 
	C449.830933,532.893799 460.027496,533.920166 470.644470,534.954651 
	C465.469971,546.414429 464.926086,558.924194 462.532654,571.467041 
	C453.722809,571.181213 445.339905,570.545227 436.957397,569.904175 
	C419.691071,568.583862 402.424927,567.260803 385.158722,565.938843 
	C386.436859,553.546997 387.714966,541.155090 389.081116,528.356689 
z"/>
<path fill="#BABABA" opacity="1.000000" stroke="none" 
	d="
M294.353943,509.805634 
	C292.270172,510.103668 290.186310,509.586792 288.630585,510.270905 
	C272.082184,517.548157 255.616913,525.014526 239.130203,532.432007 
	C222.340530,539.985779 205.558624,547.557007 188.750565,555.069580 
	C187.571594,555.596558 186.204498,555.702576 184.543213,556.009216 
	C188.693222,545.229004 193.224884,534.443848 198.284256,523.263428 
	C220.641647,513.026367 242.434723,503.102295 264.316925,493.378784 
	C274.776794,488.730896 285.405762,484.463501 295.958160,480.023804 
	C296.475677,482.161835 296.993195,484.299835 297.733093,486.720245 
	C298.116364,494.708374 298.564209,502.456848 294.353943,509.805634 
z"/>
<path fill="#171717" opacity="1.000000" stroke="none" 
	d="
M465.003662,633.998901 
	C467.296997,642.801575 469.470459,651.637756 471.924408,660.395447 
	C473.660034,666.589600 475.775330,672.677429 478.011353,679.727722 
	C474.813721,679.403137 472.113312,679.384460 469.529602,678.826050 
	C450.228638,674.653931 430.922089,670.496521 411.704254,665.965820 
	C409.470001,665.439087 406.873566,663.031189 405.969818,660.860596 
	C401.702454,650.611267 397.965729,640.141052 394.409363,629.437988 
	C399.992371,629.796204 405.191833,630.613220 410.421814,631.107422 
	C424.875092,632.473267 439.331482,633.834473 453.808655,634.898438 
	C457.498352,635.169495 461.269775,634.328735 465.003662,633.998901 
z"/>
<path fill="#B2B2B2" opacity="1.000000" stroke="none" 
	d="
M295.823486,479.694214 
	C285.405762,484.463501 274.776794,488.730896 264.316925,493.378784 
	C242.434723,503.102295 220.641647,513.026367 198.454773,522.936523 
	C200.269989,512.791260 203.113586,502.651306 201.903717,491.541901 
	C203.754471,490.756042 205.317062,490.699524 206.639282,490.106812 
	C227.392776,480.803680 248.054718,471.292877 268.890961,462.180267 
	C273.629700,460.107788 278.947388,459.359161 283.998627,458.001221 
	C285.466614,459.567413 286.934601,461.133606 288.678925,462.871216 
	C291.199738,468.483307 293.444275,473.923981 295.823486,479.694214 
z"/>
<path fill="#222222" opacity="1.000000" stroke="none" 
	d="
M464.999084,633.556152 
	C461.269775,634.328735 457.498352,635.169495 453.808655,634.898438 
	C439.331482,633.834473 424.875092,632.473267 410.421814,631.107422 
	C405.191833,630.613220 399.992371,629.796204 394.396545,629.053955 
	C391.680756,617.932373 389.347412,606.883240 387.417725,595.484131 
	C394.393463,595.808472 400.954193,596.634705 407.539856,597.128174 
	C425.680206,598.487427 443.830933,599.707397 461.977570,600.982422 
	C462.983215,611.692749 463.988892,622.403137 464.999084,633.556152 
z"/>
<path fill="#2F2F2F" opacity="1.000000" stroke="none" 
	d="
M461.981567,600.515625 
	C443.830933,599.707397 425.680206,598.487427 407.539856,597.128174 
	C400.954193,596.634705 394.393463,595.808472 387.430115,595.054199 
	C386.379395,585.610474 385.719940,576.246582 385.109589,566.410767 
	C402.424927,567.260803 419.691071,568.583862 436.957397,569.904175 
	C445.339905,570.545227 453.722809,571.181213 462.505859,571.886353 
	C462.599335,581.318420 462.292450,590.683655 461.981567,600.515625 
z"/>
<path fill="#D1D1D1" opacity="1.000000" stroke="none" 
	d="
M149.577576,117.866989 
	C151.211014,118.818001 152.449112,120.697212 153.865845,120.843239 
	C157.983124,121.267609 162.173996,120.914665 166.332397,121.015434 
	C178.117783,121.301048 189.901367,121.660828 202.222595,122.408829 
	C202.604813,126.349030 204.508331,127.380775 207.752975,127.325424 
	C214.902588,127.203484 222.091888,127.733063 229.196884,127.156799 
	C235.959351,126.608330 241.265945,128.372406 245.143692,133.930801 
	C246.389313,135.716278 247.312378,137.726776 248.383011,139.634323 
	C246.219238,140.418518 244.060287,141.868683 241.890961,141.884354 
	C219.106613,142.048950 196.319809,142.082520 173.535706,141.900192 
	C168.953720,141.863525 166.486938,143.113754 166.468933,148.082550 
	C164.086807,148.779373 162.046661,149.982025 160.060242,149.899048 
	C149.031723,149.438278 138.016251,148.665176 126.996323,147.998993 
	C132.496567,136.573456 140.375092,126.913452 149.577576,117.866989 
z"/>
<path fill="#CECECE" opacity="1.000000" stroke="none" 
	d="
M167.588074,594.189331 
	C170.693481,593.067688 173.643890,592.457642 176.328293,591.254211 
	C194.645676,583.041992 212.880371,574.645020 231.214752,566.471436 
	C234.027084,565.217712 237.215927,564.808533 240.648163,564.012512 
	C229.611465,579.818848 226.182220,598.220398 223.916229,617.411377 
	C213.458847,614.787903 202.952057,611.881653 192.539581,608.669739 
	C183.702164,605.943604 174.973633,602.864624 165.981522,599.869995 
	C166.471634,597.861694 166.890823,596.144043 167.588074,594.189331 
z"/>
<path fill="#686868" opacity="1.000000" stroke="none" 
	d="
M512.239502,266.310425 
	C521.141357,266.651611 530.098389,267.081940 538.960144,268.240448 
	C541.436157,268.564148 544.365356,270.519287 545.837036,272.606964 
	C556.163513,287.255066 566.170715,302.128448 576.239624,316.957184 
	C576.677856,317.602570 576.721985,318.515564 576.944458,319.676392 
	C572.734741,319.379120 568.551697,318.459534 564.320923,318.096802 
	C557.596863,317.520325 550.840942,317.315491 543.653442,316.937469 
	C530.441223,301.682037 518.488953,285.940674 512.239502,266.310425 
z"/>
<path fill="#C5C5C5" opacity="1.000000" stroke="none" 
	d="
M485.904541,244.532074 
	C485.004791,244.996140 484.174011,244.999542 483.343201,245.000290 
	C472.867249,245.009644 472.756012,245.001892 472.043457,255.355850 
	C471.748108,259.647766 469.359406,259.386810 466.589325,258.306763 
	C459.636322,255.595840 452.513794,253.181763 445.883850,249.813049 
	C436.406769,244.997726 426.611755,243.032761 416.090393,243.944000 
	C413.956177,244.128845 411.758606,243.582458 408.769562,243.293961 
	C410.266418,241.380127 411.035583,240.396729 412.100922,238.774414 
	C412.912079,234.425888 413.427002,230.716293 414.041351,226.634720 
	C414.234589,225.502060 414.328369,224.741364 414.793030,223.985199 
	C422.260803,226.736053 429.417328,229.339157 436.440308,232.263077 
	C446.400269,236.409744 456.256653,240.804688 466.169495,245.065170 
	C468.260834,245.964020 470.792023,246.865982 470.856201,243.304749 
	C470.930054,239.210129 470.317078,235.103134 470.001160,230.554779 
	C469.332275,225.405075 468.664673,220.702072 467.992310,215.575684 
	C467.340515,211.107483 466.693512,207.062698 466.392212,202.910889 
	C469.223846,201.869263 471.650635,200.408051 474.209259,200.120667 
	C478.272766,199.664276 482.424316,199.991684 486.538605,199.987534 
	C486.376404,210.361832 486.202423,220.735947 486.057739,231.110489 
	C485.997498,235.429932 485.999664,239.750259 485.904541,244.532074 
z"/>
<path fill="#9D9D9D" opacity="1.000000" stroke="none" 
	d="
M175.983398,424.428284 
	C182.402771,420.737762 188.827209,417.374603 195.284653,414.076080 
	C202.778137,410.248352 210.300613,406.477386 218.154312,402.463654 
	C218.994232,402.499481 219.490356,402.753387 219.986450,403.007324 
	C224.810822,407.434265 229.645264,411.850281 234.453400,416.294739 
	C235.897659,417.629791 237.268677,419.044098 238.845520,420.709869 
	C232.962585,424.294128 227.026642,427.837830 220.824509,430.829712 
	C211.257721,435.444733 201.495300,439.652985 191.852402,444.112793 
	C190.535828,444.721680 189.429764,445.785736 188.041107,446.949341 
	C183.905014,439.767822 179.954025,432.276062 175.983398,424.428284 
z"/>
<path fill="#ADADAD" opacity="1.000000" stroke="none" 
	d="
M283.834167,457.712402 
	C278.947388,459.359161 273.629700,460.107788 268.890961,462.180267 
	C248.054718,471.292877 227.392776,480.803680 206.639282,490.106812 
	C205.317062,490.699524 203.754471,490.756042 201.872498,491.082275 
	C200.553299,486.717529 199.665329,482.332489 199.046600,477.395325 
	C207.888351,472.889679 216.410431,468.822144 225.044418,465.007874 
	C240.327545,458.256165 255.678711,451.658478 271.001404,444.996338 
	C275.224182,449.138763 279.446960,453.281189 283.834167,457.712402 
z"/>
<path fill="#CECECE" opacity="1.000000" stroke="none" 
	d="
M126.752243,148.150421 
	C138.016251,148.665176 149.031723,149.438278 160.060242,149.899048 
	C162.046661,149.982025 164.086807,148.779373 166.538239,148.547073 
	C166.932663,157.945190 166.890991,166.966492 166.499390,176.069092 
	C162.399384,177.101685 158.665604,178.767761 154.895767,178.853760 
	C147.319183,179.026596 139.711273,178.494553 132.140106,177.932587 
	C128.773209,177.682693 125.463997,176.655350 122.128609,175.980881 
	C123.456734,167.582001 124.784851,159.183136 126.029327,150.353561 
	C126.133179,149.382523 126.320663,148.842194 126.752243,148.150421 
z"/>
<path fill="#CECECE" opacity="1.000000" stroke="none" 
	d="
M486.563263,199.595215 
	C482.424316,199.991684 478.272766,199.664276 474.209259,200.120667 
	C471.650635,200.408051 469.223846,201.869263 466.349792,202.512909 
	C463.985199,195.149628 462.008698,188.077316 459.960205,180.626801 
	C456.894867,171.836487 453.901489,163.424347 451.315063,154.990555 
	C459.242859,154.945450 466.763702,154.921997 474.284515,154.898560 
	C480.165894,166.089401 483.245178,178.150421 485.315002,190.519562 
	C485.797699,193.404236 486.166656,196.307938 486.563263,199.595215 
z"/>
<path fill="#A9A9A9" opacity="1.000000" stroke="none" 
	d="
M270.824890,444.711090 
	C255.678711,451.658478 240.327545,458.256165 225.044418,465.007874 
	C216.410431,468.822144 207.888351,472.889679 198.971100,476.994507 
	C197.417862,473.357300 196.209381,469.568756 195.014832,465.390564 
	C203.091248,461.631561 211.210281,458.390259 219.202682,454.862152 
	C230.555359,449.850677 241.878632,444.762665 253.091797,439.448486 
	C260.584808,435.897339 265.701111,439.590607 270.824890,444.711090 
z"/>
<path fill="#D1D1D1" opacity="1.000000" stroke="none" 
	d="
M474.221283,154.539352 
	C466.763702,154.921997 459.242859,154.945450 451.075256,154.756104 
	C444.621368,144.689087 438.814301,134.834854 433.007263,124.980614 
	C435.021515,123.988205 436.953979,122.425537 439.067047,122.122620 
	C443.405640,121.500664 447.840973,121.553421 452.619659,121.163681 
	C460.054596,132.059326 467.106323,143.119736 474.221283,154.539352 
z"/>
<path fill="#686868" opacity="1.000000" stroke="none" 
	d="
M570.814148,274.969360 
	C575.524048,275.304718 580.233887,275.640076 585.387573,275.968018 
	C587.350281,290.502045 591.394897,304.290070 598.318665,317.609192 
	C594.655334,317.972229 590.827209,317.994476 586.543823,318.022095 
	C582.940613,311.202881 579.792725,304.378296 576.341309,296.891602 
	C574.396851,291.151642 572.755920,286.073853 571.087402,280.567200 
	C570.977966,278.415344 570.896057,276.692352 570.814148,274.969360 
z"/>
<path fill="#171717" opacity="1.000000" stroke="none" 
	d="
M278.913147,400.309021 
	C277.365082,401.248383 275.843384,402.141418 274.313477,402.155701 
	C264.510895,402.247070 254.706528,402.145538 244.219513,401.692261 
	C243.290314,396.542664 243.123428,391.802429 242.773483,387.075745 
	C242.492126,383.275696 243.922699,381.730591 247.885559,381.882935 
	C260.081085,382.351746 258.908966,382.023346 258.884125,370.459991 
	C258.883057,369.970245 258.764801,369.480743 258.778900,368.528809 
	C258.872833,360.917664 258.912354,353.768768 258.897888,346.619995 
	C258.886292,340.887238 258.105347,340.137726 252.163422,340.115356 
	C245.180786,340.089081 238.189026,339.895508 231.218567,340.187805 
	C226.998352,340.364777 225.581451,338.831421 225.850586,334.726379 
	C226.251724,328.607819 226.814728,322.304047 221.067627,317.788727 
	C221.677444,316.712158 221.995987,315.939484 222.582581,315.416656 
	C223.540359,316.486084 224.230072,317.305634 225.413193,318.711487 
	C225.758255,316.811218 225.921997,315.909454 226.457916,314.987030 
	C234.692978,311.579193 242.604477,308.298370 250.389771,304.741272 
	C252.779129,303.649536 254.822922,301.801483 257.253479,300.140808 
	C257.890839,299.614197 258.299652,299.246582 259.090149,298.856995 
	C265.923737,296.561615 272.375641,294.288177 278.894409,292.478271 
	C279.036743,306.291534 279.112213,319.641266 279.107910,333.454193 
	C279.076904,344.942841 279.125671,355.968323 279.174469,366.993805 
	C279.094879,377.947968 279.015259,388.902130 278.913147,400.309021 
z"/>
<path fill="#171717" opacity="1.000000" stroke="none" 
	d="
M358.134216,329.962311 
	C360.877930,332.847107 363.242920,336.311768 366.486877,338.430756 
	C369.019501,340.085022 372.643890,340.068024 376.806976,341.030334 
	C376.806976,349.599152 376.806976,358.839020 376.900665,368.539551 
	C376.357513,372.165741 374.423645,373.135803 371.250153,373.079163 
	C361.608612,372.907135 351.956818,373.179718 342.322266,372.868744 
	C340.536469,372.811127 338.812378,370.841705 337.030975,368.910706 
	C337.014984,361.085358 337.021362,354.103882 337.042633,347.122498 
	C337.062256,340.685333 337.633667,340.134857 344.272430,340.112305 
	C347.596924,340.101013 350.930725,340.259094 354.243530,340.060455 
	C358.061462,339.831543 359.416748,338.119690 356.685303,334.348938 
	C353.328766,331.160553 349.495270,328.741760 347.081970,325.321075 
	C338.661072,313.384705 327.241241,309.941650 313.442566,312.147797 
	C312.793518,312.251556 312.111084,312.125427 311.447144,312.160797 
	C308.476990,312.318909 307.234802,310.911530 307.294891,307.961365 
	C307.393127,303.134918 307.448212,298.301178 307.289307,293.478149 
	C307.174164,289.984070 308.792023,288.694336 312.075287,288.721313 
	C318.901154,288.777344 325.727997,288.776581 332.553894,288.724426 
	C335.655640,288.700745 337.145660,289.997803 337.065399,293.212341 
	C336.957397,297.538422 336.875854,301.879578 337.135040,306.193115 
	C337.234802,307.853088 337.879333,309.865479 338.997467,311.015350 
	C345.254303,317.449707 351.731995,323.669342 358.134216,329.962311 
z"/>
<path fill="#B2B2B2" opacity="1.000000" stroke="none" 
	d="
M356.859589,334.659180 
	C359.416748,338.119690 358.061462,339.831543 354.243530,340.060455 
	C350.930725,340.259094 347.596924,340.101013 344.272430,340.112305 
	C337.633667,340.134857 337.062256,340.685333 337.042633,347.122498 
	C337.021362,354.103882 337.014984,361.085358 336.931152,368.530334 
	C319.351105,368.659851 301.841583,368.343414 284.333557,367.959442 
	C282.874176,367.927399 281.424774,367.439697 279.572601,367.078735 
	C279.125671,355.968323 279.076904,344.942841 279.564453,333.454895 
	C288.594696,333.050537 297.091553,332.987671 305.581940,333.192261 
	C322.676331,333.604187 339.767242,334.161713 356.859589,334.659180 
z"/>
<path fill="#BABABA" opacity="1.000000" stroke="none" 
	d="
M518.862244,165.069412 
	C515.368103,154.614044 511.829559,144.173035 508.435638,133.685226 
	C508.009003,132.366776 508.343994,130.801834 508.744049,129.382492 
	C520.846680,152.422287 532.554016,175.419220 544.206421,198.443939 
	C549.996887,209.885513 555.629822,221.407227 561.486694,232.814285 
	C562.310120,234.417999 564.005920,235.573807 565.297913,236.936935 
	C565.752380,241.343948 566.206848,245.750961 566.401855,250.543732 
	C564.848145,249.753784 563.198730,248.793945 562.327698,247.361008 
	C559.918091,243.396866 557.703247,239.299728 555.641724,235.140961 
	C544.948486,213.568710 534.374939,191.936859 523.603516,170.403931 
	C522.575684,168.349319 520.468384,166.834717 518.862244,165.069412 
z"/>
<path fill="#ADADAD" opacity="1.000000" stroke="none" 
	d="
M518.884766,165.489685 
	C520.468384,166.834717 522.575684,168.349319 523.603516,170.403931 
	C534.374939,191.936859 544.948486,213.568710 555.641724,235.140961 
	C557.703247,239.299728 559.918091,243.396866 562.327698,247.361008 
	C563.198730,248.793945 564.848145,249.753784 566.484741,250.940033 
	C567.242126,255.359909 567.657043,259.769226 567.748413,264.547394 
	C566.380432,263.911713 565.067444,263.071716 564.335205,261.876099 
	C559.480713,253.949265 554.372559,246.144470 550.062500,237.924759 
	C542.184998,222.901596 534.867859,207.585480 527.149414,192.477173 
	C525.921448,190.073578 523.819397,188.116547 522.121460,185.953064 
	C521.050049,179.272034 519.978638,172.590988 518.884766,165.489685 
z"/>
<path fill="#9D9D9D" opacity="1.000000" stroke="none" 
	d="
M522.081177,186.387924 
	C523.819397,188.116547 525.921448,190.073578 527.149414,192.477173 
	C534.867859,207.585480 542.184998,222.901596 550.062500,237.924759 
	C554.372559,246.144470 559.480713,253.949265 564.335205,261.876099 
	C565.067444,263.071716 566.380432,263.911713 567.778564,264.992401 
	C568.884949,268.174835 569.637512,271.281097 570.602173,274.678345 
	C570.896057,276.692352 570.977966,278.415344 570.735474,280.508331 
	C568.144287,277.905029 565.713379,275.041473 563.638550,271.939758 
	C553.777100,257.197296 543.346497,242.806778 536.155640,226.429169 
	C533.420593,220.199951 530.212402,214.169174 527.003357,208.163620 
	C526.138611,206.545334 524.480652,205.350845 523.186829,203.961838 
	C522.804871,198.248825 522.422852,192.535797 522.081177,186.387924 
z"/>
<path fill="#C5C5C5" opacity="1.000000" stroke="none" 
	d="
M565.265015,236.480606 
	C564.005920,235.573807 562.310120,234.417999 561.486694,232.814285 
	C555.629822,221.407227 549.996887,209.885513 544.206421,198.443939 
	C532.554016,175.419220 520.846680,152.422287 508.985199,129.080811 
	C510.705536,128.295929 512.602661,127.844093 514.774292,128.006271 
	C515.360046,129.728546 515.498901,130.923721 516.007568,131.932419 
	C530.806091,161.277130 545.614014,190.617294 560.559265,219.887299 
	C561.245056,221.230484 563.218628,221.916138 564.592407,222.908035 
	C564.805664,227.280121 565.018921,231.652191 565.265015,236.480606 
z"/>
<path fill="#959595" opacity="1.000000" stroke="none" 
	d="
M523.208130,204.374512 
	C524.480652,205.350845 526.138611,206.545334 527.003357,208.163620 
	C530.212402,214.169174 533.420593,220.199951 536.155640,226.429169 
	C543.346497,242.806778 553.777100,257.197296 563.638550,271.939758 
	C565.713379,275.041473 568.144287,277.905029 570.763062,280.937195 
	C572.755920,286.073853 574.396851,291.151642 576.130127,296.614746 
	C574.867310,295.915924 573.154053,295.078369 572.211731,293.709961 
	C561.184143,277.696960 549.891113,261.846039 539.480286,245.437073 
	C533.705750,236.335678 529.127625,226.414429 524.697754,216.553879 
	C523.149353,213.107391 523.659363,208.736130 523.208130,204.374512 
z"/>
<path fill="#CECECE" opacity="1.000000" stroke="none" 
	d="
M564.554688,222.457062 
	C563.218628,221.916138 561.245056,221.230484 560.559265,219.887299 
	C545.614014,190.617294 530.806091,161.277130 516.007568,131.932419 
	C515.498901,130.923721 515.360046,129.728546 515.046387,128.231735 
	C518.314514,129.984772 521.585144,132.126328 524.793213,134.801071 
	C525.054016,137.024277 525.018738,138.891846 525.754517,140.377548 
	C536.168823,161.405563 546.620483,182.415833 557.248047,203.336502 
	C558.997253,206.779816 561.629333,209.774643 563.853271,212.976730 
	C564.074524,215.986526 564.295715,218.996307 564.554688,222.457062 
z"/>
<path fill="#D7D7D7" opacity="1.000000" stroke="none" 
	d="
M563.895569,212.560699 
	C561.629333,209.774643 558.997253,206.779816 557.248047,203.336502 
	C546.620483,182.415833 536.168823,161.405563 525.754517,140.377548 
	C525.018738,138.891846 525.054016,137.024277 524.981689,135.082489 
	C527.822205,137.141357 530.411621,139.451996 533.037842,142.495514 
	C533.396606,144.498322 533.503662,145.874878 534.072998,147.022095 
	C542.169312,163.337875 550.292053,179.640976 558.540833,195.879913 
	C559.198486,197.174576 560.831482,197.973785 562.011230,199.003235 
	C562.653442,203.383713 563.295593,207.764191 563.895569,212.560699 
z"/>
<path fill="#E7E7E7" opacity="1.000000" stroke="none" 
	d="
M562.020325,198.588638 
	C560.831482,197.973785 559.198486,197.174576 558.540833,195.879913 
	C550.292053,179.640976 542.169312,163.337875 534.072998,147.022095 
	C533.503662,145.874878 533.396606,144.498322 533.078918,142.808289 
	C545.668335,153.839493 554.159485,167.863174 558.957642,184.110687 
	C560.313110,188.700562 561.023254,193.481003 562.020325,198.588638 
z"/>
<path fill="#ADADAD" opacity="1.000000" stroke="none" 
	d="
M258.701172,368.991150 
	C258.764801,369.480743 258.883057,369.970245 258.884125,370.459991 
	C258.908966,382.023346 260.081085,382.351746 247.885559,381.882935 
	C243.922699,381.730591 242.492126,383.275696 242.773483,387.075745 
	C243.123428,391.802429 243.290314,396.542664 243.750366,401.644348 
	C236.285202,402.341888 228.605942,402.672150 220.456573,403.004852 
	C219.490356,402.753387 218.994232,402.499481 218.242615,402.133728 
	C207.346771,390.918518 196.706451,379.815094 186.472931,368.362427 
	C210.820221,368.339203 234.760696,368.665192 258.701172,368.991150 
z"/>
<path fill="#BABABA" opacity="1.000000" stroke="none" 
	d="
M356.685303,334.348938 
	C339.767242,334.161713 322.676331,333.604187 305.581940,333.192261 
	C297.091553,332.987671 288.594696,333.050537 279.644226,332.991699 
	C279.112213,319.641266 279.036743,306.291534 278.974457,292.022461 
	C279.051117,287.399872 279.114594,283.696594 279.178101,279.993347 
	C286.967316,280.328888 294.753510,280.795258 302.546326,280.973724 
	C320.823547,281.392334 339.107910,281.545380 357.380096,282.106659 
	C361.528046,282.234070 365.638489,283.583588 369.712250,285.113922 
	C369.418030,287.626923 368.985016,289.394745 368.968353,291.166504 
	C368.849823,303.773987 368.816345,316.382233 368.755798,328.990265 
	C365.475189,329.265076 362.194550,329.539856 358.524078,329.888489 
	C351.731995,323.669342 345.254303,317.449707 338.997467,311.015350 
	C337.879333,309.865479 337.234802,307.853088 337.135040,306.193115 
	C336.875854,301.879578 336.957397,297.538422 337.065399,293.212341 
	C337.145660,289.997803 335.655640,288.700745 332.553894,288.724426 
	C325.727997,288.776581 318.901154,288.777344 312.075287,288.721313 
	C308.792023,288.694336 307.174164,289.984070 307.289307,293.478149 
	C307.448212,298.301178 307.393127,303.134918 307.294891,307.961365 
	C307.234802,310.911530 308.476990,312.318909 311.447144,312.160797 
	C312.111084,312.125427 312.793518,312.251556 313.442566,312.147797 
	C327.241241,309.941650 338.661072,313.384705 347.081970,325.321075 
	C349.495270,328.741760 353.328766,331.160553 356.685303,334.348938 
z"/>
<path fill="#171717" opacity="1.000000" stroke="none" 
	d="
M368.888123,329.379639 
	C368.816345,316.382233 368.849823,303.773987 368.968353,291.166504 
	C368.985016,289.394745 369.418030,287.626923 369.844727,285.484650 
	C374.334534,285.071320 378.659058,285.264252 382.931122,284.877502 
	C384.695648,284.717743 386.347565,283.314240 388.050720,282.476410 
	C387.254761,281.008850 386.584930,279.454254 385.642334,278.087860 
	C379.649139,269.399872 371.447815,265.891602 361.007568,267.756012 
	C360.686707,267.813293 360.346558,267.767578 360.015503,267.762665 
	C350.499481,267.621307 349.760468,269.635651 350.477539,257.384827 
	C357.909637,253.862640 364.968994,250.951126 371.898071,247.756851 
	C373.204071,247.154816 373.990753,245.426300 375.017090,244.217560 
	C378.549438,243.599915 379.897980,245.369827 379.873810,248.651718 
	C379.866486,249.644928 380.038696,250.667130 379.862457,251.627182 
	C377.900665,262.314240 381.698822,270.548828 390.737915,276.852783 
	C395.052643,283.324249 400.779388,286.121826 408.730927,284.645203 
	C408.730927,299.800140 408.761841,314.263733 408.664856,328.726440 
	C408.658020,329.745117 407.707214,330.757477 406.921875,331.999817 
	C395.880035,332.187103 385.109192,332.252869 374.345673,332.003540 
	C372.554291,331.962036 370.794708,330.548553 368.888123,329.379639 
z"/>
<path fill="#3B3B3B" opacity="1.000000" stroke="none" 
	d="
M317.917969,238.534805 
	C315.806946,238.626389 313.666412,238.983963 311.591034,238.753891 
	C307.337402,238.282379 303.927704,239.512878 300.511963,243.002228 
	C298.676880,242.996841 297.655945,242.913147 296.786285,242.516571 
	C302.387848,238.308792 304.339294,233.011551 303.376953,226.465164 
	C303.216095,225.370804 303.553345,224.203217 304.007538,223.049332 
	C305.010193,222.923080 305.721680,222.946686 306.313141,222.691803 
	C319.436432,217.036026 332.501984,211.243073 345.687286,205.736725 
	C349.417145,204.179077 353.697418,202.061905 357.362152,202.613541 
	C365.182861,203.790741 372.770447,206.530243 380.445374,208.659058 
	C391.625427,211.760071 402.798309,214.887024 414.058044,218.414597 
	C414.087250,220.218292 414.032684,221.610291 413.577332,222.997223 
	C401.713684,219.690048 390.281860,216.272263 378.762512,213.180573 
	C376.373627,212.539413 373.339966,212.335571 371.146698,213.243042 
	C354.450195,220.151321 337.865234,227.332504 321.326355,234.612350 
	C319.892517,235.243484 319.040344,237.196060 317.917969,238.534805 
z"/>
<path fill="#2F2F2F" opacity="1.000000" stroke="none" 
	d="
M318.376740,238.613129 
	C319.040344,237.196060 319.892517,235.243484 321.326355,234.612350 
	C337.865234,227.332504 354.450195,220.151321 371.146698,213.243042 
	C373.339966,212.335571 376.373627,212.539413 378.762512,213.180573 
	C390.281860,216.272263 401.713684,219.690048 413.687256,223.242310 
	C414.272644,223.655228 414.347412,223.817947 414.422180,223.980682 
	C414.328369,224.741364 414.234589,225.502060 413.641479,226.630753 
	C409.330811,225.957840 405.558350,224.732056 401.699036,223.918396 
	C395.586700,222.629715 389.978149,218.242096 383.117371,221.441956 
	C373.083344,226.121857 362.856506,230.387573 352.800690,235.022507 
	C351.593231,235.579071 350.938782,237.335434 350.028015,238.535675 
	C339.630493,238.587601 329.233002,238.639526 318.376740,238.613129 
z"/>
<path fill="#222222" opacity="1.000000" stroke="none" 
	d="
M350.488098,238.618759 
	C350.938782,237.335434 351.593231,235.579071 352.800690,235.022507 
	C362.856506,230.387573 373.083344,226.121857 383.117371,221.441956 
	C389.978149,218.242096 395.586700,222.629715 401.699036,223.918396 
	C405.558350,224.732056 409.330811,225.957840 413.542053,227.002731 
	C413.427002,230.716293 412.912079,234.425888 412.150635,238.435272 
	C391.585480,238.723984 371.266815,238.712906 350.488098,238.618759 
z"/>
<path fill="#2F2F2F" opacity="1.000000" stroke="none" 
	d="
M296.635010,242.829453 
	C297.655945,242.913147 298.676880,242.996841 300.211609,243.126343 
	C295.417877,248.606293 290.334747,254.286728 284.729370,259.393951 
	C280.516785,263.232147 277.924591,267.307190 278.523743,273.575226 
	C276.138519,274.452698 274.141510,274.672119 272.337616,275.382111 
	C267.875519,277.138397 263.501831,279.119263 259.002502,280.548157 
	C258.978943,273.061615 259.045471,266.036743 259.488098,258.990906 
	C261.603668,258.453522 263.382477,258.041107 265.075104,257.400909 
	C269.685516,255.657089 274.259521,253.817017 278.949585,252.392044 
	C280.830292,256.619232 283.217712,255.603058 285.540710,253.451813 
	C289.296661,249.973495 292.942596,246.376389 296.635010,242.829453 
z"/>
<path fill="#222222" opacity="1.000000" stroke="none" 
	d="
M259.092621,281.009888 
	C263.501831,279.119263 267.875519,277.138397 272.337616,275.382111 
	C274.141510,274.672119 276.138519,274.452698 278.443909,274.013123 
	C278.905090,275.726959 278.970001,277.437683 279.106506,279.570892 
	C279.114594,283.696594 279.051117,287.399872 278.907593,291.558929 
	C272.375641,294.288177 265.923737,296.561615 259.135681,298.400391 
	C258.770294,293.307861 258.741058,288.649933 258.792877,283.623840 
	C258.946838,282.507080 259.019714,281.758514 259.092621,281.009888 
z"/>
<path fill="#222222" opacity="1.000000" stroke="none" 
	d="
M374.553467,244.136810 
	C373.990753,245.426300 373.204071,247.154816 371.898071,247.756851 
	C364.968994,250.951126 357.909637,253.862640 350.544281,256.943634 
	C349.619568,241.224762 349.401306,244.333725 362.233429,244.051636 
	C366.183624,243.964783 370.137634,244.049759 374.553467,244.136810 
z"/>
<path fill="#C5C5C5" opacity="1.000000" stroke="none" 
	d="
M122.074471,176.406418 
	C125.463997,176.655350 128.773209,177.682693 132.140106,177.932587 
	C139.711273,178.494553 147.319183,179.026596 154.895767,178.853760 
	C158.665604,178.767761 162.399384,177.101685 166.570969,176.500458 
	C167.120605,184.214188 167.161591,184.259247 174.651733,184.269440 
	C180.722702,184.277695 186.793686,184.271103 192.864670,184.271103 
	C193.401520,185.079391 193.938354,185.887665 194.475204,186.695953 
	C192.256851,188.147369 189.558136,189.193420 187.920013,191.134521 
	C184.494171,195.194000 180.554001,196.591202 175.289688,196.323639 
	C167.159760,195.910431 158.992279,196.290710 150.842621,196.186310 
	C147.295486,196.140854 145.737503,197.472336 145.768982,201.173035 
	C145.876556,213.814331 145.834656,226.457794 145.731842,239.099457 
	C145.702484,242.709030 147.169434,244.149521 150.801636,244.100113 
	C160.447952,243.968842 170.100128,243.924866 179.744141,244.125626 
	C183.939774,244.212952 185.275253,242.511368 185.209122,238.494537 
	C185.028427,227.518326 185.641846,216.503586 184.928848,205.570084 
	C184.408325,197.588303 189.621277,194.441696 195.193863,189.365204 
	C195.193863,200.797348 195.193863,210.906204 195.146790,221.402222 
	C196.692993,222.862686 198.188568,224.620544 199.900208,224.864914 
	C203.325882,225.354004 206.869843,225.014420 210.364960,225.017273 
	C218.218216,225.023682 218.139130,225.024918 218.256622,233.121201 
	C218.300613,236.153336 218.807617,239.178757 219.195770,243.151581 
	C218.277313,243.323349 216.471985,243.917007 214.655319,243.954071 
	C208.499741,244.079697 202.338531,244.093765 196.182663,243.979660 
	C192.594208,243.913132 190.914169,245.362244 191.168228,249.021774 
	C191.259491,250.336334 191.045563,251.672104 190.504059,252.997833 
	C176.298279,252.664169 162.552597,252.495544 148.822968,251.934189 
	C140.913116,251.610779 133.029236,250.652328 125.133667,249.979706 
	C123.761826,241.483307 121.617683,233.025101 121.195168,224.481750 
	C120.524643,210.923721 120.957069,197.308487 121.043640,183.718231 
	C121.058281,181.420822 121.679413,179.127289 122.074471,176.406418 
z"/>
<path fill="#B2B2B2" opacity="1.000000" stroke="none" 
	d="
M258.778931,368.528839 
	C234.760696,368.665192 210.820221,368.339203 186.403152,368.025208 
	C180.683975,361.635651 175.179382,355.427460 170.271667,348.778717 
	C165.249588,341.975067 160.812469,334.739624 156.437378,327.183014 
	C162.101624,326.445221 167.447815,326.217560 172.871399,326.412231 
	C172.440765,330.789764 174.000687,332.687103 178.134979,332.133667 
	C179.414413,331.962341 180.717987,331.971252 182.473328,331.972229 
	C188.572571,332.064667 194.208969,332.092255 199.845413,332.098450 
	C213.819824,332.113770 213.819824,332.109863 212.387543,317.628479 
	C212.656265,315.359924 212.781708,313.481842 212.951096,310.945496 
	C215.962723,313.696136 218.369537,315.894379 220.776352,318.092621 
	C226.814728,322.304047 226.251724,328.607819 225.850586,334.726379 
	C225.581451,338.831421 226.998352,340.364777 231.218567,340.187805 
	C238.189026,339.895508 245.180786,340.089081 252.163422,340.115356 
	C258.105347,340.137726 258.886292,340.887238 258.897888,346.619995 
	C258.912354,353.768768 258.872833,360.917664 258.778931,368.528839 
z"/>
<path fill="#BFBFBF" opacity="1.000000" stroke="none" 
	d="
M125.106979,250.378326 
	C133.029236,250.652328 140.913116,251.610779 148.822968,251.934189 
	C162.552597,252.495544 176.298279,252.664169 190.595184,253.450394 
	C191.169601,256.215790 191.183273,258.528290 191.203079,260.840729 
	C191.255371,266.948303 192.025162,267.713898 197.981964,267.816711 
	C200.287491,267.856537 202.590714,268.030548 204.716721,268.408356 
	C200.991943,272.186523 197.183075,275.477478 193.968124,279.271606 
	C190.296326,283.604919 186.020493,285.230591 180.400330,284.878479 
	C177.928421,284.723633 175.352097,286.235352 172.365601,286.991974 
	C159.936874,286.663147 147.965729,286.332764 135.994583,286.002380 
	C132.356476,274.260559 128.718384,262.518768 125.106979,250.378326 
z"/>
<path fill="#BABABA" opacity="1.000000" stroke="none" 
	d="
M136.010040,286.379791 
	C147.965729,286.332764 159.936874,286.663147 172.427460,287.456665 
	C173.005066,293.284119 173.063217,298.648499 173.059814,304.469513 
	C173.046417,308.622803 173.094604,312.319397 173.076935,316.464966 
	C172.938736,319.939240 172.866379,322.964569 172.794006,325.989899 
	C167.447815,326.217560 162.101624,326.445221 156.372772,326.839874 
	C149.335236,313.590332 142.680359,300.173767 136.010040,286.379791 
z"/>
<path fill="#505050" opacity="1.000000" stroke="none" 
	d="
M195.193863,221.015076 
	C195.193863,210.906204 195.193863,200.797348 195.193863,189.365204 
	C189.621277,194.441696 184.408325,197.588303 184.928848,205.570084 
	C185.641846,216.503586 185.028427,227.518326 185.209122,238.494537 
	C185.275253,242.511368 183.939774,244.212952 179.744141,244.125626 
	C170.100128,243.924866 160.447952,243.968842 150.801636,244.100113 
	C147.169434,244.149521 145.702484,242.709030 145.731842,239.099457 
	C145.834656,226.457794 145.876556,213.814331 145.768982,201.173035 
	C145.737503,197.472336 147.295486,196.140854 150.842621,196.186310 
	C158.992279,196.290710 167.159760,195.910431 175.289688,196.323639 
	C180.554001,196.591202 184.494171,195.194000 187.920013,191.134521 
	C189.558136,189.193420 192.256851,188.147369 194.475204,186.695953 
	C193.938354,185.887665 193.401520,185.079391 192.864670,184.271103 
	C186.793686,184.271103 180.722702,184.277695 174.651733,184.269440 
	C167.161591,184.259247 167.120605,184.214188 166.920883,176.419189 
	C166.890991,166.966492 166.932663,157.945190 166.905029,148.459351 
	C166.486938,143.113754 168.953720,141.863525 173.535706,141.900192 
	C196.319809,142.082520 219.106613,142.048950 241.890961,141.884354 
	C244.060287,141.868683 246.219238,140.418518 248.383011,139.634323 
	C247.312378,137.726776 246.389313,135.716278 245.143692,133.930801 
	C241.265945,128.372406 235.959351,126.608330 229.196884,127.156799 
	C222.091888,127.733063 214.902588,127.203484 207.752975,127.325424 
	C204.508331,127.380775 202.604813,126.349030 202.661987,122.408951 
	C202.564484,114.210518 202.564484,106.429382 202.564484,97.800392 
	C209.612793,97.800392 215.866028,97.820389 222.119095,97.794586 
	C227.997299,97.770325 228.745239,96.993912 228.843353,91.237373 
	C229.035141,79.986282 226.553223,80.127571 240.288620,80.187096 
	C252.101624,80.238289 263.914856,80.235443 276.214020,80.625908 
	C273.957245,84.950035 271.214417,88.904747 268.255737,93.092613 
	C266.954346,95.797829 265.868774,98.269890 264.490173,100.854385 
	C263.812378,101.131599 263.427673,101.296387 262.583374,101.355942 
	C257.649933,101.230621 253.164673,101.402603 248.705322,101.137978 
	C243.973022,100.857140 241.873245,102.774872 242.301147,107.506264 
	C242.405197,108.656677 242.477707,109.852951 242.285324,110.980469 
	C240.472122,121.607056 243.871902,130.049225 252.714249,136.271301 
	C255.476456,138.214981 258.212799,140.195419 260.977600,142.529663 
	C261.329987,143.980621 261.340668,145.657242 262.053467,146.045792 
	C267.217316,148.860535 272.522888,151.415207 277.835327,154.474869 
	C277.973450,156.597672 278.059845,158.297806 278.070831,160.461349 
	C277.987518,167.049667 277.867706,173.177261 278.013855,179.298492 
	C278.100800,182.941238 276.513184,184.436844 272.985748,184.363419 
	C269.179962,184.284210 265.371124,184.351944 261.563629,184.351151 
	C248.284988,184.348373 248.176514,184.473816 249.562881,198.077728 
	C249.393204,198.042175 249.047195,198.019852 248.681915,198.074722 
	C238.937500,202.223343 229.572479,206.349854 220.174973,210.401016 
	C211.866730,213.982635 203.522308,217.480316 195.193863,221.015076 
z"/>
<path fill="#F6F6F6" opacity="1.000000" stroke="none" 
	d="
M432.723694,124.806854 
	C438.814301,134.834854 444.621368,144.689087 450.668274,154.777771 
	C453.901489,163.424347 456.894867,171.836487 459.581604,180.605621 
	C451.623230,177.356339 444.026184,173.627518 436.303802,170.179382 
	C429.066589,166.947876 421.696716,164.013458 414.307343,160.625671 
	C414.162933,159.865875 414.096375,159.428726 414.074768,158.536041 
	C414.172363,145.260971 414.422180,147.203461 403.135834,146.980164 
	C402.138672,146.960434 401.125763,146.848068 400.146271,146.977097 
	C395.476868,147.592209 391.958679,145.973343 388.765991,142.414703 
	C385.242981,138.487869 381.061066,135.152191 377.067749,131.245056 
	C375.610718,128.631485 374.252106,126.331902 372.934265,123.593964 
	C372.952332,121.107849 372.929657,119.060089 372.936096,116.577072 
	C372.959320,114.109444 372.953339,112.077080 372.966309,109.589722 
	C372.989563,107.981873 373.003723,106.828957 372.996613,105.676163 
	C372.953796,98.732849 372.267548,98.035851 365.346680,98.005173 
	C361.558807,97.988380 357.770752,98.013115 353.523132,98.017227 
	C349.373993,98.021889 345.684479,98.028458 341.555786,98.018692 
	C333.143738,97.929955 333.107361,97.957352 333.056305,104.031876 
	C333.026489,104.014091 332.967224,103.977959 332.593201,103.970810 
	C316.810638,96.423317 301.372345,88.942245 286.044098,81.242073 
	C284.658813,80.546181 283.982849,78.438309 282.977478,76.986153 
	C291.533356,72.071426 301.182159,71.800323 310.540039,71.292755 
	C329.481354,70.265366 348.374420,70.290512 366.828461,76.275330 
	C394.146545,85.134842 415.067932,102.412666 432.723694,124.806854 
z"/>
<path fill="#E7E7E7" opacity="1.000000" stroke="none" 
	d="
M282.687134,77.145477 
	C283.982849,78.438309 284.658813,80.546181 286.044098,81.242073 
	C301.372345,88.942245 316.810638,96.423317 332.621094,104.419395 
	C333.071320,107.267677 333.119629,109.660233 333.131897,112.486465 
	C333.122772,114.956154 333.149719,116.992165 333.128754,119.430725 
	C333.124939,122.821312 331.715393,124.210526 328.667725,124.174881 
	C327.108093,124.156639 325.543121,124.592957 323.513794,124.810638 
	C317.037323,124.807442 311.027588,124.817444 304.705200,124.697655 
	C298.995850,120.012718 293.599121,115.457573 288.141449,110.558510 
	C286.847992,108.728302 285.554535,107.287773 284.396820,105.745361 
	C282.494019,103.210289 280.679230,100.609177 278.880951,97.569656 
	C278.560242,91.419022 278.185913,85.734657 277.811584,80.050278 
	C279.339996,79.135124 280.868378,78.219963 282.687134,77.145477 
z"/>
<path fill="#ADADAD" opacity="1.000000" stroke="none" 
	d="
M277.507690,80.112106 
	C278.185913,85.734657 278.560242,91.419022 278.524902,97.541168 
	C274.900696,96.272453 271.686157,94.565956 268.471619,92.859459 
	C271.214417,88.904747 273.957245,84.950035 276.655273,80.674965 
	C276.808289,80.294380 277.006042,80.234154 277.507690,80.112106 
z"/>
<path fill="#E7E7E7" opacity="1.000000" stroke="none" 
	d="
M414.385223,160.948303 
	C421.696716,164.013458 429.066589,166.947876 436.303802,170.179382 
	C444.026184,173.627518 451.623230,177.356339 459.653564,180.983826 
	C462.008698,188.077316 463.985199,195.149628 466.004089,202.619934 
	C466.693512,207.062698 467.340515,211.107483 467.617493,215.555328 
	C462.711029,213.981903 458.157715,212.043091 453.641083,210.022324 
	C435.670135,201.981918 417.667175,194.009720 399.807220,185.729355 
	C397.791382,184.794739 396.606445,182.067993 395.499146,180.125900 
	C398.740143,180.051682 401.544525,180.252136 404.289276,179.935547 
	C407.395508,179.577255 410.448242,178.755035 413.713715,177.775665 
	C413.919769,174.282944 413.936371,171.149094 414.005554,167.575394 
	C414.167175,165.073120 414.276215,163.010712 414.385223,160.948303 
z"/>
<path fill="#D7D7D7" opacity="1.000000" stroke="none" 
	d="
M395.036194,180.172287 
	C396.606445,182.067993 397.791382,184.794739 399.807220,185.729355 
	C417.667175,194.009720 435.670135,201.981918 453.641083,210.022324 
	C458.157715,212.043091 462.711029,213.981903 467.622253,215.978729 
	C468.664673,220.702072 469.332275,225.405075 469.609344,230.552002 
	C467.930542,230.717087 466.543945,230.655991 465.369171,230.125717 
	C453.543457,224.787872 441.824951,219.205246 429.917053,214.060104 
	C424.947296,211.912811 419.595398,210.650101 414.328461,208.618317 
	C414.156647,207.501877 414.073608,206.752319 414.087311,205.564041 
	C414.249939,196.233871 414.249939,196.233902 405.559998,196.190887 
	C401.904907,196.172806 398.240936,196.296875 394.598938,196.069275 
	C393.053192,195.972656 391.176147,195.549774 390.101807,194.564270 
	C386.471710,191.234467 383.133881,187.586075 379.748932,183.637375 
	C381.066650,182.100021 382.201721,180.238541 383.596313,180.017944 
	C386.962433,179.485458 390.449829,179.719742 394.174377,179.778702 
	C394.652374,179.999130 394.844269,180.085709 395.036194,180.172287 
z"/>
<path fill="#CECECE" opacity="1.000000" stroke="none" 
	d="
M414.417236,208.985184 
	C419.595398,210.650101 424.947296,211.912811 429.917053,214.060104 
	C441.824951,219.205246 453.543457,224.787872 465.369171,230.125717 
	C466.543945,230.655991 467.930542,230.717087 469.610626,230.998718 
	C470.317078,235.103134 470.930054,239.210129 470.856201,243.304749 
	C470.792023,246.865982 468.260834,245.964020 466.169495,245.065170 
	C456.256653,240.804688 446.400269,236.409744 436.440308,232.263077 
	C429.417328,229.339157 422.260803,226.736053 414.793030,223.985199 
	C414.347412,223.817947 414.272644,223.655228 414.088013,223.247406 
	C414.032684,221.610291 414.087250,220.218292 414.151825,217.993668 
	C414.086334,215.442612 414.010864,213.724167 414.024170,211.632187 
	C414.214355,210.500824 414.315796,209.743011 414.417236,208.985184 
z"/>
<path fill="#BABABA" opacity="1.000000" stroke="none" 
	d="
M258.711792,283.992004 
	C258.741058,288.649933 258.770294,293.307861 258.754028,298.422363 
	C258.299652,299.246582 257.890839,299.614197 256.783234,300.134521 
	C247.959610,300.322510 239.834015,300.436493 231.710220,300.359528 
	C227.696884,300.321503 225.317413,301.445404 225.839630,306.076355 
	C226.172165,309.025238 226.020370,312.028687 226.085754,315.007690 
	C225.921997,315.909454 225.758255,316.811218 225.413193,318.711487 
	C224.230072,317.305634 223.540359,316.486084 222.435532,315.147156 
	C218.818451,310.076660 212.091125,308.061188 212.419861,300.631012 
	C212.486984,296.466156 212.407349,292.746368 212.432800,288.688934 
	C211.357208,287.065399 210.176529,285.779510 209.096497,284.182800 
	C210.144470,283.424255 211.102386,282.565857 212.037491,282.589996 
	C227.597290,282.991821 243.154221,283.504242 258.711792,283.992004 
z"/>
<path fill="#222222" opacity="1.000000" stroke="none" 
	d="
M212.273071,301.076080 
	C212.091125,308.061188 218.818451,310.076660 222.167480,314.897308 
	C221.995987,315.939484 221.677444,316.712158 221.067627,317.788727 
	C218.369537,315.894379 215.962723,313.696136 212.951096,310.945496 
	C212.781708,313.481842 212.656265,315.359924 212.042969,317.636169 
	C205.448837,320.474274 199.247070,322.704651 193.270279,325.428650 
	C189.348801,327.215881 185.752457,329.716492 182.010513,331.897644 
	C180.717987,331.971252 179.414413,331.962341 178.134979,332.133667 
	C174.000687,332.687103 172.440765,330.789764 172.871399,326.412231 
	C172.866379,322.964569 172.938736,319.939240 173.462860,316.457825 
	C175.335571,315.640656 176.835434,315.462036 178.164001,314.887329 
	C184.354736,312.209564 190.437668,309.274628 196.677399,306.720520 
	C201.789536,304.627899 207.068207,302.942169 212.273071,301.076080 
z"/>
<path fill="#222222" opacity="1.000000" stroke="none" 
	d="
M226.457901,314.987030 
	C226.020370,312.028687 226.172165,309.025238 225.839630,306.076355 
	C225.317413,301.445404 227.696884,300.321503 231.710220,300.359528 
	C239.834015,300.436493 247.959610,300.322510 256.554718,300.293488 
	C254.822922,301.801483 252.779129,303.649536 250.389771,304.741272 
	C242.604477,308.298370 234.692978,311.579193 226.457901,314.987030 
z"/>
<path fill="#C5C5C5" opacity="1.000000" stroke="none" 
	d="
M296.786285,242.516571 
	C292.942596,246.376389 289.296661,249.973495 285.540710,253.451813 
	C283.217712,255.603058 280.830292,256.619232 279.029205,251.932373 
	C278.956329,246.735535 278.905426,242.375320 278.931030,237.550980 
	C279.006866,231.424530 278.867615,225.757660 279.053375,220.101456 
	C279.180603,216.227402 277.638458,214.683594 273.768341,214.787247 
	C267.444183,214.956604 261.111237,214.768051 254.783920,214.860901 
	C251.032028,214.915955 249.256531,213.294144 249.285095,209.494339 
	C249.313812,205.670334 249.135040,201.844742 249.047195,198.019852 
	C249.047195,198.019852 249.393204,198.042175 249.977020,198.042450 
	C268.090698,198.368317 285.620605,198.693909 303.221252,199.482620 
	C303.414856,207.653656 303.537659,215.361557 303.660461,223.069473 
	C303.553345,224.203217 303.216095,225.370804 303.376953,226.465164 
	C304.339294,233.011551 302.387848,238.308792 296.786285,242.516571 
z"/>
<path fill="#474747" opacity="1.000000" stroke="none" 
	d="
M304.007538,223.049332 
	C303.537659,215.361557 303.414856,207.653656 303.442932,199.191345 
	C305.620361,197.681885 307.637573,196.300980 309.674896,196.270691 
	C326.114716,196.026489 342.558350,196.036316 359.437225,196.057770 
	C362.236389,196.251556 364.599091,196.356140 367.004242,196.802856 
	C368.020325,197.920914 368.878510,199.059906 369.986847,199.412277 
	C375.996094,201.322754 382.053406,203.087265 388.120239,204.810226 
	C396.713379,207.250656 405.329254,209.611099 413.935394,212.005722 
	C414.010864,213.724167 414.086334,215.442612 414.068054,217.581985 
	C402.798309,214.887024 391.625427,211.760071 380.445374,208.659058 
	C372.770447,206.530243 365.182861,203.790741 357.362152,202.613541 
	C353.697418,202.061905 349.417145,204.179077 345.687286,205.736725 
	C332.501984,211.243073 319.436432,217.036026 306.313141,222.691803 
	C305.721680,222.946686 305.010193,222.923080 304.007538,223.049332 
z"/>
<path fill="#BFBFBF" opacity="1.000000" stroke="none" 
	d="
M258.792877,283.623840 
	C243.154221,283.504242 227.597290,282.991821 212.037491,282.589996 
	C211.102386,282.565857 210.144470,283.424255 208.650330,284.249634 
	C205.414856,284.550507 202.726227,284.473724 200.005402,284.067993 
	C199.631241,282.450531 199.289291,281.162079 199.088501,279.574524 
	C205.185440,273.677979 209.658966,265.459717 219.974762,267.540192 
	C220.172852,267.580170 220.464233,267.157654 220.842957,266.841736 
	C220.842957,264.969666 220.842957,262.992615 220.917877,260.554016 
	C220.999588,256.599701 220.966263,253.106277 221.023102,249.614334 
	C221.097305,245.054718 224.883179,241.125336 229.377197,241.088760 
	C237.526810,241.022400 245.683823,240.908493 253.822617,241.215607 
	C255.605011,241.282852 257.323944,243.031830 259.018494,244.469482 
	C259.013916,249.625717 259.062958,254.318817 259.112000,259.011902 
	C259.045471,266.036743 258.978943,273.061615 259.002502,280.548187 
	C259.019714,281.758514 258.946838,282.507080 258.792877,283.623840 
z"/>
<path fill="#3B3B3B" opacity="1.000000" stroke="none" 
	d="
M259.488098,258.990906 
	C259.062958,254.318817 259.013916,249.625717 259.369904,244.403503 
	C262.917389,242.506805 265.973236,240.859329 269.227295,239.852325 
	C272.328857,238.892471 275.637115,238.600616 278.854523,238.015106 
	C278.905426,242.375320 278.956329,246.735535 278.927582,251.555420 
	C274.259521,253.817017 269.685516,255.657089 265.075104,257.400909 
	C263.382477,258.041107 261.603668,258.453522 259.488098,258.990906 
z"/>
<path fill="#474747" opacity="1.000000" stroke="none" 
	d="
M278.931030,237.550964 
	C275.637115,238.600616 272.328857,238.892471 269.227295,239.852325 
	C265.973236,240.859329 262.917389,242.506805 259.423523,243.940338 
	C257.323944,243.031830 255.605011,241.282852 253.822617,241.215607 
	C245.683823,240.908493 237.526810,241.022400 229.377197,241.088760 
	C224.883179,241.125336 221.097305,245.054718 221.023102,249.614334 
	C220.966263,253.106277 220.999588,256.599701 220.578339,260.488220 
	C213.698837,260.410919 208.666992,262.952271 204.894989,268.143433 
	C202.590714,268.030548 200.287491,267.856537 197.981964,267.816711 
	C192.025162,267.713898 191.255371,266.948303 191.203079,260.840729 
	C191.183273,258.528290 191.169601,256.215790 191.062027,253.450745 
	C191.045563,251.672104 191.259491,250.336334 191.168228,249.021774 
	C190.914169,245.362244 192.594208,243.913132 196.182663,243.979660 
	C202.338531,244.093765 208.499741,244.079697 214.655319,243.954071 
	C216.471985,243.917007 218.277313,243.323349 219.195770,243.151581 
	C218.807617,239.178757 218.300613,236.153336 218.256622,233.121201 
	C218.139130,225.024918 218.218216,225.023682 210.364960,225.017273 
	C206.869843,225.014420 203.325882,225.354004 199.900208,224.864914 
	C198.188568,224.620544 196.692993,222.862686 195.146790,221.402222 
	C203.522308,217.480316 211.866730,213.982635 220.174973,210.401016 
	C229.572479,206.349854 238.937500,202.223343 248.681915,198.074722 
	C249.135040,201.844742 249.313812,205.670334 249.285095,209.494339 
	C249.256531,213.294144 251.032028,214.915955 254.783920,214.860901 
	C261.111237,214.768051 267.444183,214.956604 273.768341,214.787247 
	C277.638458,214.683594 279.180603,216.227402 279.053375,220.101456 
	C278.867615,225.757660 279.006866,231.424530 278.931030,237.550964 
z"/>
<path fill="#171717" opacity="1.000000" stroke="none" 
	d="
M182.473328,331.972229 
	C185.752457,329.716492 189.348801,327.215881 193.270279,325.428650 
	C199.247070,322.704651 205.448837,320.474274 211.899658,318.026611 
	C213.819824,332.109863 213.819824,332.113770 199.845413,332.098450 
	C194.208969,332.092255 188.572571,332.064667 182.473328,331.972229 
z"/>
<path fill="#3B3B3B" opacity="1.000000" stroke="none" 
	d="
M204.716721,268.408356 
	C208.666992,262.952271 213.698837,260.410919 220.503418,260.949768 
	C220.842957,262.992615 220.842957,264.969666 220.842957,266.841736 
	C220.464233,267.157654 220.172852,267.580170 219.974762,267.540192 
	C209.658966,265.459717 205.185440,273.677979 198.790405,279.710114 
	C197.115265,281.435638 195.879379,282.726532 193.791809,284.906982 
	C196.860764,284.656342 198.449188,284.526642 200.037598,284.396912 
	C202.726227,284.473724 205.414856,284.550507 208.549667,284.560425 
	C210.176529,285.779510 211.357208,287.065399 212.067612,288.684082 
	C208.181900,290.114197 204.686996,291.013428 201.366150,292.346344 
	C191.913239,296.140564 182.531265,300.111481 173.121384,304.012848 
	C173.063217,298.648499 173.005066,293.284119 172.885040,287.455078 
	C175.352097,286.235352 177.928421,284.723633 180.400330,284.878479 
	C186.020493,285.230591 190.296326,283.604919 193.968124,279.271606 
	C197.183075,275.477478 200.991943,272.186523 204.716721,268.408356 
z"/>
<path fill="#2F2F2F" opacity="1.000000" stroke="none" 
	d="
M173.059814,304.469513 
	C182.531265,300.111481 191.913239,296.140564 201.366150,292.346344 
	C204.686996,291.013428 208.181900,290.114197 211.962509,289.021729 
	C212.407349,292.746368 212.486984,296.466156 212.419861,300.631012 
	C207.068207,302.942169 201.789536,304.627899 196.677399,306.720520 
	C190.437668,309.274628 184.354736,312.209564 178.164001,314.887329 
	C176.835434,315.462036 175.335571,315.640656 173.528687,316.008881 
	C173.094604,312.319397 173.046417,308.622803 173.059814,304.469513 
z"/>
<path fill="#CECECE" opacity="1.000000" stroke="none" 
	d="
M359.000793,195.968582 
	C342.558350,196.036316 326.114716,196.026489 309.674896,196.270691 
	C307.637573,196.300980 305.620361,197.681885 303.372131,198.728210 
	C285.620605,198.693909 268.090698,198.368317 250.146698,198.078003 
	C248.176514,184.473816 248.284988,184.348373 261.563629,184.351151 
	C265.371124,184.351944 269.179962,184.284210 272.985748,184.363419 
	C276.513184,184.436844 278.100800,182.941238 278.013855,179.298492 
	C277.867706,173.177261 277.987518,167.049667 278.395508,160.562973 
	C281.035492,164.182144 284.802521,165.375748 288.996643,165.986954 
	C290.771576,166.245636 292.523438,166.882629 294.200592,167.558868 
	C313.149048,175.198776 332.113922,182.800293 350.982605,190.633194 
	C353.892212,191.841064 356.339630,194.162262 359.000793,195.968582 
z"/>
<path fill="#D7D7D7" opacity="1.000000" stroke="none" 
	d="
M260.960968,142.159027 
	C258.212799,140.195419 255.476456,138.214981 252.714249,136.271301 
	C243.871902,130.049225 240.472122,121.607056 242.285324,110.980469 
	C242.477707,109.852951 242.405197,108.656677 242.301147,107.506264 
	C241.873245,102.774872 243.973022,100.857140 248.705322,101.137978 
	C253.164673,101.402603 257.649933,101.230621 262.579590,101.730881 
	C261.699188,108.677704 260.301208,115.132477 259.053223,121.616119 
	C258.443207,124.785255 259.661530,126.765434 262.903992,128.032913 
	C270.921753,131.167068 278.661926,135.048416 286.771118,137.896347 
	C290.918396,139.352829 294.709412,143.312988 299.888916,141.423065 
	C299.968018,143.702286 299.979553,145.526245 299.977142,147.350174 
	C299.968658,153.745255 300.317017,154.112595 306.736206,154.096039 
	C315.359894,154.073807 323.983490,153.993912 332.607147,153.990936 
	C338.462341,153.988937 339.835571,155.878357 338.650391,161.690002 
	C338.229797,163.752426 338.307434,165.916473 338.108398,168.466858 
	C337.978943,170.929916 337.898712,172.960220 337.431488,174.987671 
	C335.120941,174.512253 333.092957,174.287720 331.289978,173.528656 
	C313.566101,166.066742 295.879669,158.515945 278.120605,150.561005 
	C277.867828,141.995514 277.867859,141.973907 269.770264,141.966003 
	C266.833893,141.963135 263.897400,142.090881 260.960968,142.159027 
z"/>
<path fill="#D1D1D1" opacity="1.000000" stroke="none" 
	d="
M278.182556,150.990356 
	C295.879669,158.515945 313.566101,166.066742 331.289978,173.528656 
	C333.092957,174.287720 335.120941,174.512253 337.515198,175.367188 
	C339.502930,177.130280 340.972321,179.631165 342.545349,179.698166 
	C349.430756,179.991409 356.346222,179.579300 363.580139,179.579224 
	C368.228058,179.332901 371.743347,180.912384 374.818054,184.364410 
	C376.495605,186.171692 377.922913,187.741531 379.460663,189.194489 
	C381.735870,191.344238 382.080872,193.576935 379.550110,196.082550 
	C375.045013,196.235992 371.003418,196.348373 366.961823,196.460724 
	C364.599091,196.356140 362.236389,196.251556 359.437225,196.057770 
	C356.339630,194.162262 353.892212,191.841064 350.982605,190.633194 
	C332.113922,182.800293 313.149048,175.198776 294.200592,167.558868 
	C292.523438,166.882629 290.771576,166.245636 288.996643,165.986954 
	C284.802521,165.375748 281.035492,164.182144 278.470917,160.099564 
	C278.059845,158.297806 277.973450,156.597672 277.921875,154.097687 
	C278.032043,152.528671 278.107300,151.759506 278.182556,150.990356 
z"/>
<path fill="#E7E7E7" opacity="1.000000" stroke="none" 
	d="
M299.815002,140.967789 
	C294.709412,143.312988 290.918396,139.352829 286.771118,137.896347 
	C278.661926,135.048416 270.921753,131.167068 262.903992,128.032913 
	C259.661530,126.765434 258.443207,124.785255 259.053223,121.616119 
	C260.301208,115.132477 261.699188,108.677704 263.039185,101.836113 
	C263.427673,101.296387 263.812378,101.131599 264.937988,100.985359 
	C272.474915,99.972046 277.496887,102.804352 281.548798,108.059357 
	C282.746857,109.613136 284.439178,110.785805 286.082397,112.410934 
	C288.934143,115.392403 291.467224,118.256935 294.317719,120.759995 
	C298.084778,124.067955 300.843109,127.694221 300.096497,133.484314 
	C299.972961,136.270752 299.893982,138.619278 299.815002,140.967789 
z"/>
<path fill="#686868" opacity="1.000000" stroke="none" 
	d="
M278.120575,150.561005 
	C278.107300,151.759506 278.032043,152.528671 277.870178,153.675018 
	C272.522888,151.415207 267.217316,148.860535 262.053467,146.045792 
	C261.340668,145.657242 261.329987,143.980621 260.977600,142.529663 
	C263.897400,142.090881 266.833893,141.963135 269.770264,141.966003 
	C277.867859,141.973907 277.867828,141.995514 278.120575,150.561005 
z"/>
<path fill="#A0A0A0" opacity="1.000000" stroke="none" 
	d="
M285.904968,112.133125 
	C284.439178,110.785805 282.746857,109.613136 281.548798,108.059357 
	C277.496887,102.804352 272.474915,99.972046 265.231079,100.872925 
	C265.868774,98.269890 266.954346,95.797829 268.255737,93.092613 
	C271.686157,94.565956 274.900696,96.272453 278.471283,98.007431 
	C280.679230,100.609177 282.494019,103.210289 284.396820,105.745361 
	C285.554535,107.287773 286.847992,108.728302 287.813904,110.632370 
	C286.999878,111.411133 286.452423,111.772133 285.904968,112.133125 
z"/>
<path fill="#ADADAD" opacity="1.000000" stroke="none" 
	d="
M414.307343,160.625671 
	C414.276215,163.010712 414.167175,165.073120 413.626709,167.554260 
	C412.230865,167.730972 411.189148,167.648148 410.313843,167.222839 
	C398.505890,161.485321 386.705902,155.730606 374.960999,149.865936 
	C374.069885,149.420975 373.610413,148.111679 373.389221,147.133179 
	C376.889587,146.709976 379.950958,146.357773 383.403015,146.008118 
	C386.401001,146.944122 389.075867,147.724503 391.602936,148.839844 
	C399.109772,152.153015 406.558441,155.598068 414.029846,158.991577 
	C414.096375,159.428726 414.162933,159.865875 414.307343,160.625671 
z"/>
<path fill="#C5C5C5" opacity="1.000000" stroke="none" 
	d="
M333.167969,112.052788 
	C333.119629,109.660233 333.071320,107.267677 332.995117,104.426544 
	C332.967224,103.977959 333.026489,104.014091 333.438477,104.019707 
	C337.020874,105.317047 340.327240,106.352371 343.336884,107.947502 
	C353.246948,113.199913 363.049591,118.655045 372.893494,124.032318 
	C374.252106,126.331902 375.610718,128.631485 376.867767,131.538696 
	C376.147736,132.431808 375.529236,132.717316 374.622925,132.842575 
	C370.824493,128.591248 366.630402,126.101318 360.929504,126.645653 
	C355.577789,123.036804 350.431152,119.507881 344.956848,116.594696 
	C341.266602,114.630890 337.113831,113.536247 333.167969,112.052788 
z"/>
<path fill="#D1D1D1" opacity="1.000000" stroke="none" 
	d="
M372.934265,123.593964 
	C363.049591,118.655045 353.246948,113.199913 343.336884,107.947502 
	C340.327240,106.352371 337.020874,105.317047 333.468262,104.037491 
	C333.107361,97.957352 333.143738,97.929955 341.623627,98.356445 
	C342.601257,99.364082 342.927521,100.273773 343.564270,100.632843 
	C353.321320,106.134972 363.118835,111.565292 372.906952,117.012329 
	C372.929657,119.060089 372.952332,121.107849 372.934265,123.593964 
z"/>
<path fill="#BABABA" opacity="1.000000" stroke="none" 
	d="
M374.910767,133.002838 
	C375.529236,132.717316 376.147736,132.431808 376.966187,131.852661 
	C381.061066,135.152191 385.242981,138.487869 388.765991,142.414703 
	C391.958679,145.973343 395.476868,147.592209 400.146271,146.977097 
	C401.125763,146.848068 402.138672,146.960434 403.135834,146.980164 
	C414.422180,147.203461 414.172363,145.260971 414.074768,158.536057 
	C406.558441,155.598068 399.109772,152.153015 391.602936,148.839844 
	C389.075867,147.724503 386.401001,146.944122 383.426086,145.610001 
	C382.235779,143.184967 381.727203,140.942810 380.512115,139.190552 
	C378.939972,136.923416 376.803986,135.047302 374.910767,133.002838 
z"/>
<path fill="#D7D7D7" opacity="1.000000" stroke="none" 
	d="
M372.936096,116.577072 
	C363.118835,111.565292 353.321320,106.134972 343.564270,100.632843 
	C342.927521,100.273773 342.601257,99.364082 342.062744,98.372772 
	C345.684479,98.028458 349.373993,98.021889 353.615387,98.343033 
	C360.427277,102.462059 366.687317,106.253380 372.947388,110.044708 
	C372.953339,112.077080 372.959320,114.109444 372.936096,116.577072 
z"/>
<path fill="#E7E7E7" opacity="1.000000" stroke="none" 
	d="
M372.966309,109.589722 
	C366.687317,106.253380 360.427277,102.462059 354.075012,98.344933 
	C357.770752,98.013115 361.558807,97.988380 365.346680,98.005173 
	C372.267548,98.035851 372.953796,98.732849 372.996613,105.676163 
	C373.003723,106.828957 372.989563,107.981873 372.966309,109.589722 
z"/>
<path fill="#959595" opacity="1.000000" stroke="none" 
	d="
M286.082397,112.410934 
	C286.452423,111.772133 286.999878,111.411133 287.874878,110.976273 
	C293.599121,115.457573 298.995850,120.012718 304.777863,125.043823 
	C315.575989,133.815018 327.500854,139.278381 339.961365,144.376404 
	C343.348511,149.084381 348.112915,145.914948 352.012451,147.495926 
	C354.039185,149.401428 355.833099,151.389999 358.067993,152.440018 
	C376.507141,161.103317 395.028076,169.592575 413.524231,178.134552 
	C410.448242,178.755035 407.395508,179.577255 404.289276,179.935547 
	C401.544525,180.252136 398.740143,180.051682 395.499146,180.125900 
	C394.844269,180.085709 394.652374,179.999130 394.171173,179.436340 
	C392.856628,177.794830 392.060303,176.154068 390.772522,175.534073 
	C362.021332,161.692093 333.220459,147.953110 304.406464,134.242065 
	C303.092529,133.616837 301.567688,133.434830 300.141083,133.046371 
	C300.843109,127.694221 298.084778,124.067955 294.317719,120.759995 
	C291.467224,118.256935 288.934143,115.392403 286.082397,112.410934 
z"/>
<path fill="#9D9D9D" opacity="1.000000" stroke="none" 
	d="
M339.811127,144.019989 
	C327.500854,139.278381 315.575989,133.815018 305.090515,125.173615 
	C311.027588,124.817444 317.037323,124.807442 323.683990,125.116440 
	C329.473694,128.314926 334.626465,131.194427 339.820923,134.521149 
	C339.845428,137.985580 339.828278,141.002792 339.811127,144.019989 
z"/>
<path fill="#BABABA" opacity="1.000000" stroke="none" 
	d="
M333.131897,112.486465 
	C337.113831,113.536247 341.266602,114.630890 344.956848,116.594696 
	C350.431152,119.507881 355.577789,123.036804 360.467041,126.662750 
	C356.047119,127.015854 352.024048,127.009834 347.915283,126.674706 
	C343.665771,122.463669 339.232910,119.120522 333.176666,119.028168 
	C333.149719,116.992165 333.122772,114.956154 333.131897,112.486465 
z"/>
<path fill="#B2B2B2" opacity="1.000000" stroke="none" 
	d="
M333.128754,119.430725 
	C339.232910,119.120522 343.665771,122.463669 347.507629,126.700500 
	C342.120392,126.654930 339.428802,128.759354 339.779236,134.073914 
	C334.626465,131.194427 329.473694,128.314926 324.150757,125.129631 
	C325.543121,124.592957 327.108093,124.156639 328.667725,124.174881 
	C331.715393,124.210526 333.124939,122.821312 333.128754,119.430725 
z"/>
<path fill="#9D9D9D" opacity="1.000000" stroke="none" 
	d="
M413.713715,177.775665 
	C395.028076,169.592575 376.507141,161.103317 358.067993,152.440018 
	C355.833099,151.389999 354.039185,149.401428 352.478455,147.429901 
	C359.594116,147.076035 366.272217,147.140091 372.950287,147.204147 
	C373.610413,148.111679 374.069885,149.420975 374.960999,149.865936 
	C386.705902,155.730606 398.505890,161.485321 410.313843,167.222839 
	C411.189148,167.648148 412.230865,167.730972 413.574097,167.994141 
	C413.936371,171.149094 413.919769,174.282944 413.713715,177.775665 
z"/>
<path fill="#7B7B7B" opacity="1.000000" stroke="none" 
	d="
M300.096497,133.484314 
	C301.567688,133.434830 303.092529,133.616837 304.406464,134.242065 
	C333.220459,147.953110 362.021332,161.692093 390.772522,175.534073 
	C392.060303,176.154068 392.856628,177.794830 393.885132,179.302490 
	C390.449829,179.719742 386.962433,179.485458 383.596313,180.017944 
	C382.201721,180.238541 381.066650,182.100021 379.330139,183.627563 
	C377.436890,184.051468 376.027069,184.063080 374.617218,184.074707 
	C371.743347,180.912384 368.228058,179.332901 363.451416,179.210358 
	C355.598053,173.075287 347.605896,168.857056 338.157593,168.034119 
	C338.307434,165.916473 338.229797,163.752426 338.650391,161.690002 
	C339.835571,155.878357 338.462341,153.988937 332.607147,153.990936 
	C323.983490,153.993912 315.359894,154.073807 306.736206,154.096039 
	C300.317017,154.112595 299.968658,153.745255 299.977142,147.350174 
	C299.979553,145.526245 299.968018,143.702286 299.888916,141.423065 
	C299.893982,138.619278 299.972961,136.270752 300.096497,133.484314 
z"/>
<path fill="#686868" opacity="1.000000" stroke="none" 
	d="
M374.818054,184.364410 
	C376.027069,184.063080 377.436890,184.051468 379.265533,184.049652 
	C383.133881,187.586075 386.471710,191.234467 390.101807,194.564270 
	C391.176147,195.549774 393.053192,195.972656 394.598938,196.069275 
	C398.240936,196.296875 401.904907,196.172806 405.559998,196.190887 
	C414.249939,196.233902 414.249939,196.233871 413.682068,205.554993 
	C402.124603,202.670288 391.069122,199.355881 380.013641,196.041489 
	C382.080872,193.576935 381.735870,191.344238 379.460663,189.194489 
	C377.922913,187.741531 376.495605,186.171692 374.818054,184.364410 
z"/>
<path fill="#505050" opacity="1.000000" stroke="none" 
	d="
M379.550110,196.082550 
	C391.069122,199.355881 402.124603,202.670288 413.585327,205.993713 
	C414.073608,206.752319 414.156647,207.501877 414.328461,208.618317 
	C414.315796,209.743011 414.214355,210.500824 414.024170,211.632187 
	C405.329254,209.611099 396.713379,207.250656 388.120239,204.810226 
	C382.053406,203.087265 375.996094,201.322754 369.986847,199.412277 
	C368.878510,199.059906 368.020325,197.920914 367.004242,196.802872 
	C371.003418,196.348373 375.045013,196.235992 379.550110,196.082550 
z"/>
<path fill="#BABABA" opacity="1.000000" stroke="none" 
	d="
M200.005402,284.067963 
	C198.449188,284.526642 196.860764,284.656342 193.791809,284.906982 
	C195.879379,282.726532 197.115265,281.435638 198.649231,280.009186 
	C199.289291,281.162079 199.631241,282.450531 200.005402,284.067963 
z"/>
<path fill="#686868" opacity="1.000000" stroke="none" 
	d="
M338.108398,168.466858 
	C347.605896,168.857056 355.598053,173.075287 363.122040,179.054214 
	C356.346222,179.579300 349.430756,179.991409 342.545349,179.698166 
	C340.972321,179.631165 339.502930,177.130280 337.902161,175.370056 
	C337.898712,172.960220 337.978943,170.929916 338.108398,168.466858 
z"/>
<path fill="#E7E7E7" opacity="1.000000" stroke="none" 
	d="
M373.389221,147.133179 
	C366.272217,147.140091 359.594116,147.076035 352.450012,147.078003 
	C348.112915,145.914948 343.348511,149.084381 339.961365,144.376404 
	C339.828278,141.002792 339.845428,137.985580 339.820923,134.521149 
	C339.428802,128.759354 342.120392,126.654930 347.593323,127.029617 
	C352.024048,127.009834 356.047119,127.015854 360.532623,127.004776 
	C366.630402,126.101318 370.824493,128.591248 374.622925,132.842575 
	C376.803986,135.047302 378.939972,136.923416 380.512115,139.190552 
	C381.727203,140.942810 382.235779,143.184967 383.035400,145.607452 
	C379.950958,146.357773 376.889587,146.709976 373.389221,147.133179 
z"/>
</svg>