 <svg  version="1.0" xmlns="http://www.w3.org/2000/svg"  width="180.000000pt" height="180.000000pt" viewBox="0 0 180.000000 180.000000"  preserveAspectRatio="xMidYMid meet">  <g transform="translate(0.000000,180.000000) scale(0.100000,-0.100000)" fill="#ffffff" stroke="none"> <path d="M624 1630 c-197 -51 -315 -171 -346 -350 -23 -135 24 -311 137 -510 119 -208 125 -251 58 -395 -24 -49 -44 -96 -45 -103 -3 -12 73 -43 137 -56 11 -2 56 -14 100 -27 132 -36 305 -76 305 -70 0 3 -8 29 -16 56 -11 34 -17 89 -18 167 -1 105 1 120 20 145 21 27 24 28 104 25 147 -5 200 23 200 106 0 36 5 54 20 67 24 22 26 43 5 52 -13 5 -13 8 5 20 17 12 19 21 14 54 -5 27 -3 39 5 39 15 0 61 49 61 66 0 6 -16 32 -37 56 -61 73 -76 118 -83 253 -5 100 -10 129 -32 177 -51 112 -160 198 -293 233 -80 20 -213 18 -301 -5z m255 -4 c-2 -2 -33 -6 -69 -9 -36 -3 -73 -9 -82 -12 -29 -11 -21 -46 19 -87 28 -29 45 -38 69 -38 31 0 33 3 36 38 2 31 7 37 26 38 12 1 26 5 30 9 4 4 -6 5 -22 3 -20 -2 -35 -12 -46 -33 -21 -38 -39 -41 -73 -15 -18 15 -27 31 -27 51 0 27 2 29 43 30 94 2 132 -4 184 -28 102 -49 177 -149 213 -285 10 -40 19 -64 19 -53 1 35 -27 133 -54 185 -32 64 -79 116 -134 152 -53 33 -47 37 11 7 83 -42 173 -157 192 -245 4 -17 9 -76 11 -132 4 -109 16 -143 81 -234 37 -53 37 -65 -7 -97 -27 -20 -30 -27 -25 -55 4 -20 1 -39 -8 -51 -10 -14 -11 -24 -4 -33 8 -9 6 -18 -6 -31 -10 -11 -21 -45 -25 -75 -4 -31 -13 -62 -20 -69 -7 -7 -55 -13 -126 -16 -113 -3 -116 -4 -139 -32 -14 -17 -28 -49 -32 -75 -7 -47 0 -208 12 -255 l6 -27 -109 23 c-201 43 -243 57 -243 82 0 44 23 79 101 155 72 70 79 81 79 115 -1 21 -7 49 -15 63 -17 30 -19 24 -4 -19 16 -45 -10 -99 -67 -139 -53 -38 -101 -103 -110 -148 -3 -19 -11 -34 -16 -34 -24 0 -88 24 -88 32 0 5 17 44 37 86 33 68 38 86 38 152 0 82 -21 135 -108 279 -102 167 -153 370 -128 506 l9 50 1 -75 c2 -160 71 -321 188 -445 68 -72 80 -72 15 0 -34 38 -62 73 -62 76 0 13 105 16 120 3 8 -7 26 -14 40 -16 32 -4 38 -35 11 -54 -28 -20 -29 -79 -2 -94 29 -15 87 -12 105 6 13 13 16 44 16 184 l0 169 27 26 c19 17 39 25 64 25 33 0 37 -3 43 -30 4 -24 12 -32 36 -37 22 -4 28 -9 21 -16 -6 -6 -11 -26 -11 -45 0 -40 -23 -40 -28 1 -2 14 -10 31 -18 38 -22 18 -86 13 -101 -8 -29 -39 -2 -93 48 -93 32 0 47 -16 30 -33 -15 -15 -14 -92 2 -105 19 -16 103 -18 121 -3 10 8 16 29 16 52 0 35 3 39 26 39 41 0 56 24 58 92 1 54 -2 63 -24 79 -44 33 -50 39 -50 54 0 10 10 15 27 15 40 0 63 27 63 74 0 23 -6 52 -13 66 -10 19 -10 30 -2 47 7 13 10 36 7 53 -3 25 -11 32 -42 40 -45 12 -67 35 -73 75 l-4 30 -2 -33 c-2 -43 42 -94 74 -86 20 5 23 1 27 -36 2 -22 2 -43 -1 -46 -2 -2 -25 -4 -49 -4 -44 0 -45 0 -27 -20 10 -11 31 -20 47 -20 27 0 28 -1 28 -55 l0 -55 -138 0 -138 0 -37 -38 -38 -39 3 -171 3 -172 -47 0 c-44 0 -48 2 -48 24 0 18 6 26 21 28 19 3 22 10 22 53 l0 50 -42 3 c-32 2 -41 7 -41 21 0 10 -10 26 -21 37 -22 19 -22 19 -17 -8 5 -28 5 -28 -48 -28 l-54 0 0 60 c0 55 2 60 23 60 12 0 30 12 40 25 15 21 15 24 2 18 -14 -5 -16 0 -13 28 3 32 5 34 36 31 31 -3 33 -2 30 25 -3 24 -7 28 -30 25 -27 -3 -28 -2 -28 44 0 41 -2 45 -16 33 -12 -9 -15 -27 -12 -68 l3 -56 -52 -3 -53 -3 0 65 0 66 48 0 c26 0 56 7 66 15 19 14 17 15 -20 15 l-39 0 1 52 2 53 107 3 c93 2 105 5 95 17 -8 10 -31 15 -61 15 l-49 0 0 39 c0 37 2 40 33 43 24 2 32 8 32 23 0 17 8 20 60 23 39 2 63 8 68 18 6 10 29 14 89 14 45 0 79 -2 77 -4z m-416 -157 c-51 -9 -63 -25 -63 -84 0 -45 -4 -55 -25 -69 -22 -15 -25 -23 -25 -79 0 -36 5 -68 12 -75 7 -7 31 -12 54 -12 29 0 44 -5 48 -16 10 -25 7 -30 -19 -42 -22 -10 -25 -18 -25 -69 l0 -58 -30 50 c-52 90 -73 225 -55 350 8 55 39 98 115 157 l35 28 5 -38 c5 -35 3 -37 -27 -43z m517 -326 c0 -28 35 -73 57 -73 9 0 13 -17 13 -60 l0 -60 -49 0 -49 0 -4 60 c-3 57 -2 60 20 60 26 0 28 7 6 31 -12 13 -25 16 -45 12 -27 -5 -29 -3 -29 26 0 30 2 31 40 31 37 0 40 -2 40 -27z m-117 -104 c-4 -15 6 -32 38 -65 24 -24 49 -44 56 -44 9 0 13 -15 13 -45 l0 -45 -55 0 -55 0 0 45 c0 44 1 45 32 45 l32 0 -34 35 c-25 26 -42 35 -67 35 -30 0 -33 3 -33 30 0 28 2 30 39 30 35 0 39 -2 34 -21z"/> <path d="M653 1543 c-28 -4 -33 -8 -33 -32 0 -33 37 -71 68 -71 20 0 22 -5 22 -55 l0 -55 -35 0 c-34 0 -35 -1 -35 -39 0 -39 1 -40 37 -43 l37 -3 -3 -47 c-1 -27 1 -48 6 -48 5 0 21 13 36 28 21 22 27 38 27 75 l0 47 102 0 c100 0 101 0 83 20 -12 13 -31 20 -57 20 -37 0 -38 1 -38 36 l0 37 -50 -5 -50 -5 0 37 c0 31 -7 44 -40 74 -22 20 -41 35 -43 34 -1 0 -17 -3 -34 -5z m73 -54 c14 -13 24 -34 24 -48 -1 -23 -2 -24 -13 -10 -7 10 -29 24 -50 32 -26 11 -37 22 -37 37 0 17 5 20 26 16 15 -3 37 -15 50 -27z m88 -108 c22 -5 30 -13 33 -34 3 -25 1 -27 -28 -27 -45 0 -69 -25 -70 -74 -1 -23 -4 -32 -6 -21 -8 31 -23 45 -49 45 -15 0 -24 6 -24 15 0 8 9 15 19 15 27 0 51 37 51 78 0 31 1 32 23 21 12 -7 35 -15 51 -18z"/> <path d="M870 1447 c0 -21 4 -23 55 -22 30 0 55 3 55 6 0 17 -41 39 -73 39 -32 0 -37 -3 -37 -23z m64 4 c4 -5 -3 -7 -14 -4 -23 6 -26 13 -6 13 8 0 17 -4 20 -9z"/> <path d="M570 1145 c0 -27 -4 -35 -18 -35 -11 0 -27 -9 -37 -20 -18 -20 -17 -20 9 -20 23 0 26 -3 21 -23 -4 -16 0 -29 14 -41 21 -19 21 -19 21 2 0 19 6 22 43 22 l42 0 0 75 0 75 -47 0 -48 0 0 -35z m55 7 c6 -4 12 -26 14 -48 2 -41 2 -42 -34 -46 -43 -5 -56 13 -31 41 9 10 16 24 16 33 0 25 16 34 35 20z"/> <path d="M1197 1537 c78 -84 113 -191 111 -333 -1 -92 9 -116 84 -211 l49 -62 -15 -35 c-8 -20 -25 -46 -38 -59 -13 -13 -24 -36 -24 -52 -3 -67 -13 -107 -30 -126 -10 -11 -19 -37 -20 -59 -3 -61 -24 -92 -79 -120 -42 -21 -62 -24 -141 -23 -87 2 -92 1 -98 -20 -8 -32 -7 -150 2 -164 4 -7 8 20 8 61 1 109 -1 106 100 105 83 -1 86 -2 79 -23 -3 -11 -8 -55 -10 -96 l-4 -75 13 80 c22 130 13 123 168 127 127 4 151 19 158 101 4 42 11 62 29 78 22 21 23 23 6 35 -17 13 -17 14 6 33 19 16 22 22 12 32 -21 21 -15 38 28 79 l41 39 -41 53 c-69 92 -84 138 -87 262 -3 103 -5 114 -38 181 -54 110 -158 193 -286 231 -22 6 -21 2 17 -39z m131 -51 c41 -21 101 -91 125 -145 14 -32 22 -80 28 -161 9 -142 26 -195 92 -281 34 -46 34 -54 -3 -86 -24 -20 -30 -33 -30 -63 0 -21 -5 -42 -11 -46 -6 -3 -8 -17 -5 -30 4 -14 -1 -35 -14 -56 -11 -18 -20 -49 -20 -68 0 -19 -4 -40 -8 -46 -16 -24 -58 -36 -125 -36 -69 1 -90 7 -71 20 21 15 44 63 49 103 3 24 13 54 22 68 19 28 20 34 27 102 3 30 15 61 36 91 18 26 33 57 33 71 0 14 -19 48 -42 78 -68 85 -81 118 -81 206 0 107 -23 195 -78 306 -4 8 34 -5 76 -27z"/> <path d="M1307 1474 c-3 -3 1 -20 8 -37 7 -18 16 -52 20 -77 4 -25 11 -52 16 -60 6 -10 7 -5 4 15 -18 123 -18 120 4 101 34 -31 60 -100 67 -182 4 -44 8 -83 9 -89 20 -104 34 -142 61 -178 30 -37 40 -34 16 6 -34 55 -53 127 -63 240 -5 59 -16 125 -25 145 -22 54 -101 132 -117 116z"/> </g> </svg> 